<svg width="473" height="92" viewBox="0 0 473 92" fill="none" xmlns="http://www.w3.org/2000/svg">
<path d="M326.947 45.6367C326.947 21.3503 310.79 1.62415 290.913 1.62415C271.035 1.62415 254.878 21.3503 254.878 45.6367" stroke="#1E1E1E" stroke-width="3.17375" stroke-miterlimit="10" stroke-linejoin="round"/>
<path d="M254.878 45.6367C254.878 21.3503 238.721 1.62415 218.843 1.62415C198.966 1.62415 182.809 21.3503 182.809 45.6367" stroke="#1E1E1E" stroke-width="3.17375" stroke-miterlimit="10" stroke-linejoin="round"/>
<path d="M399.123 45.6367C399.123 21.3503 382.965 1.62415 363.088 1.62415C343.21 1.62415 327.053 21.3503 327.053 45.6367" stroke="#1E1E1E" stroke-width="3.17375" stroke-miterlimit="10" stroke-linejoin="round"/>
<path d="M471.192 45.6367C471.192 21.3503 455.035 1.62415 435.157 1.62415C415.28 1.62415 399.123 21.3503 399.123 45.6367" stroke="#1E1E1E" stroke-width="3.17375" stroke-miterlimit="10" stroke-linejoin="round"/>
<path d="M146.052 46.3633C146.052 70.6497 162.209 90.3758 182.087 90.3758C201.965 90.3758 218.122 70.6497 218.122 46.3633" stroke="#1E1E1E" stroke-width="3.17375" stroke-miterlimit="10" stroke-linejoin="round"/>
<path d="M218.122 46.3633C218.122 70.6497 234.279 90.3758 254.157 90.3758C274.034 90.3758 290.191 70.6497 290.191 46.3633" stroke="#1E1E1E" stroke-width="3.17375" stroke-miterlimit="10" stroke-linejoin="round"/>
<path d="M73.877 46.3633C73.877 70.6497 90.0341 90.3758 109.912 90.3758C129.789 90.3758 145.946 70.6497 145.946 46.3633" stroke="#1E1E1E" stroke-width="3.17375" stroke-miterlimit="10" stroke-linejoin="round"/>
<path d="M1.80762 46.3633C1.80762 70.6497 17.9648 90.3758 37.8423 90.3758C57.7199 90.3758 73.877 70.6497 73.877 46.3633" stroke="#1E1E1E" stroke-width="3.17375" stroke-miterlimit="10" stroke-linejoin="round"/>
</svg>
