<svg width="336" height="190" viewBox="0 0 336 190" fill="none" xmlns="http://www.w3.org/2000/svg">
<path d="M18.1288 68.7288L54.6288 94.9287L18.1288 121.129C1.82875 132.829 -1.87125 155.429 9.82875 171.729C21.5288 188.029 44.1288 191.729 60.4288 180.029L137.929 124.329C138.029 124.229 138.129 124.129 138.229 124.129C138.529 123.929 138.729 123.729 139.029 123.529C139.229 123.329 139.529 123.129 139.729 122.929C139.929 122.729 140.129 122.629 140.329 122.429C140.629 122.129 140.929 121.929 141.229 121.629C141.329 121.529 141.429 121.429 141.529 121.329C141.929 121.029 142.229 120.629 142.629 120.329L142.729 120.229C145.329 117.629 147.429 114.629 149.029 111.429C149.029 111.329 149.129 111.329 149.129 111.229C149.329 110.829 149.529 110.329 149.729 109.929C149.829 109.729 149.829 109.629 149.929 109.429C150.029 109.129 150.229 108.729 150.329 108.429C150.429 108.129 150.529 107.929 150.629 107.629C150.729 107.429 150.829 107.129 150.929 106.929C151.029 106.629 151.129 106.229 151.329 105.929C151.429 105.729 151.429 105.629 151.429 105.429C151.529 105.029 151.729 104.629 151.829 104.129C151.829 104.029 151.829 103.929 151.929 103.829C152.029 103.329 152.129 102.929 152.229 102.429C152.229 102.329 152.229 102.329 152.229 102.229C152.329 101.729 152.429 101.229 152.529 100.729C152.529 100.629 152.529 100.529 152.529 100.529C152.629 100.029 152.629 99.5288 152.729 99.0288C152.729 98.9288 152.729 98.8288 152.729 98.7288C152.729 98.3288 152.829 97.8287 152.829 97.4287C152.829 97.2287 152.829 97.0287 152.829 96.8287C152.829 96.4287 152.829 96.1288 152.829 95.7288C152.829 95.4288 152.829 95.1287 152.829 94.9287C152.829 94.6287 152.829 94.3288 152.829 94.1288C152.829 93.7288 152.829 93.4288 152.829 93.0288C152.829 92.8288 152.829 92.6287 152.829 92.4287C152.829 92.0287 152.729 91.5288 152.729 91.1288C152.729 91.0288 152.729 90.9287 152.729 90.8287C152.629 90.3287 152.629 89.8287 152.529 89.3287C152.529 89.2287 152.529 89.1288 152.529 89.1288C152.429 88.6288 152.329 88.1288 152.229 87.6288C152.229 87.5288 152.229 87.5287 152.229 87.4287C152.129 86.9287 152.029 86.4288 151.929 86.0288C151.929 85.9288 151.929 85.8288 151.829 85.7288C151.729 85.3288 151.629 84.9287 151.429 84.4287C151.429 84.2287 151.329 84.1287 151.329 83.9287C151.229 83.6287 151.129 83.2287 150.929 82.9287C150.829 82.7287 150.729 82.4288 150.629 82.2288C150.529 81.9288 150.429 81.7287 150.329 81.4287C150.229 81.1287 150.029 80.7287 149.929 80.4287C149.829 80.2287 149.829 80.1287 149.729 79.9287C149.529 79.5287 149.329 79.0288 149.129 78.6288C149.129 78.5288 149.029 78.5287 149.029 78.4287C147.429 75.2287 145.229 72.2288 142.729 69.6288L142.629 69.5288C142.329 69.1288 141.929 68.8288 141.529 68.5288C141.429 68.4288 141.329 68.3288 141.229 68.2288C140.929 67.9288 140.629 67.7287 140.329 67.4287C140.129 67.2287 139.929 67.1288 139.729 66.9288C139.529 66.7288 139.229 66.5287 139.029 66.3287C138.729 66.1287 138.529 65.9288 138.229 65.7288C138.129 65.6288 138.029 65.5288 137.929 65.5288L60.4288 9.82875C44.1288 -1.87125 21.5288 1.82877 9.82875 18.1288C-1.87125 34.3288 1.82875 57.0288 18.1288 68.7288Z" fill="#FF7DAF" stroke="#1E1E1E" stroke-width="5" stroke-miterlimit="10"/>
<path d="M317.929 68.7288L281.429 94.9287L317.929 121.129C334.229 132.829 337.929 155.429 326.229 171.729C314.529 188.029 291.929 191.729 275.629 180.029L198.129 124.329C198.029 124.229 197.929 124.129 197.829 124.129C197.529 123.929 197.329 123.729 197.029 123.529C196.829 123.329 196.529 123.129 196.329 122.929C196.129 122.729 195.929 122.629 195.729 122.429C195.429 122.129 195.129 121.929 194.829 121.629C194.729 121.529 194.629 121.429 194.529 121.329C194.129 121.029 193.829 120.629 193.429 120.329L193.329 120.229C190.729 117.629 188.629 114.629 187.029 111.429C187.029 111.329 186.929 111.329 186.929 111.229C186.729 110.829 186.529 110.329 186.329 109.929C186.229 109.729 186.229 109.629 186.129 109.429C186.029 109.129 185.829 108.729 185.729 108.429C185.629 108.129 185.529 107.929 185.429 107.629C185.329 107.429 185.229 107.129 185.129 106.929C185.029 106.629 184.929 106.229 184.729 105.929C184.629 105.729 184.629 105.629 184.629 105.429C184.529 105.029 184.329 104.629 184.229 104.129C184.229 104.029 184.229 103.929 184.129 103.829C184.029 103.329 183.929 102.929 183.829 102.429C183.829 102.329 183.829 102.329 183.829 102.229C183.729 101.729 183.629 101.229 183.529 100.729C183.529 100.629 183.529 100.529 183.529 100.529C183.429 100.029 183.429 99.5288 183.329 99.0288C183.329 98.9288 183.329 98.8288 183.329 98.7288C183.329 98.3288 183.229 97.8287 183.229 97.4287C183.229 97.2287 183.229 97.0287 183.229 96.8287C183.229 96.4287 183.229 96.1288 183.229 95.7288C183.229 95.4288 183.229 95.1287 183.229 94.9287C183.229 94.6287 183.229 94.3288 183.229 94.1288C183.229 93.7288 183.229 93.4288 183.229 93.0288C183.229 92.8288 183.229 92.6287 183.229 92.4287C183.229 92.0287 183.329 91.5288 183.329 91.1288C183.329 91.0288 183.329 90.9287 183.329 90.8287C183.429 90.3287 183.429 89.8287 183.529 89.3287C183.529 89.2287 183.529 89.1288 183.529 89.1288C183.629 88.6288 183.729 88.1288 183.829 87.6288C183.829 87.5288 183.829 87.5287 183.829 87.4287C183.929 86.9287 184.029 86.4288 184.129 86.0288C184.129 85.9288 184.129 85.8288 184.229 85.7288C184.329 85.3288 184.429 84.9287 184.629 84.4287C184.629 84.2287 184.729 84.1287 184.729 83.9287C184.829 83.6287 184.929 83.2287 185.129 82.9287C185.229 82.7287 185.329 82.4288 185.429 82.2288C185.529 81.9288 185.629 81.7287 185.729 81.4287C185.829 81.1287 186.029 80.7287 186.129 80.4287C186.229 80.2287 186.229 80.1287 186.329 79.9287C186.529 79.5287 186.729 79.0288 186.929 78.6288C186.929 78.5288 187.029 78.5287 187.029 78.4287C188.629 75.2287 190.829 72.2288 193.329 69.6288L193.429 69.5288C193.729 69.1288 194.129 68.8288 194.529 68.5288C194.629 68.4288 194.729 68.3288 194.829 68.2288C195.129 67.9288 195.429 67.7287 195.729 67.4287C195.929 67.2287 196.129 67.1288 196.329 66.9288C196.529 66.7288 196.829 66.5287 197.029 66.3287C197.329 66.1287 197.529 65.9288 197.829 65.7288C197.929 65.6288 198.029 65.5288 198.129 65.5288L275.629 9.82875C291.929 -1.87125 314.529 1.82877 326.229 18.1288C337.829 34.3288 334.129 57.0288 317.929 68.7288Z" fill="#FF7DAF" stroke="#1E1E1E" stroke-width="5" stroke-miterlimit="10"/>
</svg>
