<svg width="100" height="100" viewBox="0 0 100 100" fill="none" xmlns="http://www.w3.org/2000/svg">
<path d="M71.3691 93.0889L65.0938 69.6709L86.0898 81.792L95.5781 65.3584L74.5801 53.2363L98 46.9609L93.0889 28.6318L69.666 34.9082L81.792 13.9062L65.3584 4.41797L53.2344 25.417L46.9619 2L28.6318 6.91113L34.9062 30.3301L13.9102 18.207L4.42187 34.6406L25.418 46.7646L2 53.0391L6.91113 71.3682L30.3271 65.0947L18.208 86.0859L34.6406 95.5742L46.7617 74.5791L53.0391 98L71.3691 93.0889Z" fill="#FFD427"/>
<path d="M71.3691 93.0889L72.818 92.7006L73.2063 94.1495L71.7573 94.5378L71.3691 93.0889ZM65.0938 69.6709L63.6449 70.0592L62.7075 66.5613L65.8437 68.3718L65.0938 69.6709ZM86.0898 81.792L87.3889 82.542L86.6389 83.841L85.3399 83.0911L86.0898 81.792ZM95.5781 65.3584L96.3281 64.0593L97.6272 64.8093L96.8772 66.1084L95.5781 65.3584ZM74.5801 53.2363L73.8301 54.5354L70.6937 52.7248L74.1918 51.7874L74.5801 53.2363ZM98 46.9609L99.4489 46.5727L99.8371 48.0216L98.3882 48.4098L98 46.9609ZM93.0889 28.6318L92.7006 27.183L94.1495 26.7947L94.5378 28.2436L93.0889 28.6318ZM69.666 34.9082L70.0543 36.3571L66.5562 37.2944L68.367 34.1582L69.666 34.9082ZM81.792 13.9062L82.542 12.6072L83.841 13.3572L83.091 14.6563L81.792 13.9062ZM65.3584 4.41797L64.0594 3.66796L64.8094 2.36892L66.1084 3.11894L65.3584 4.41797ZM53.2344 25.417L54.5334 26.167L52.7225 29.3035L51.7855 25.8051L53.2344 25.417ZM46.9619 2L46.5737 0.551103L48.0227 0.162879L48.4108 1.61189L46.9619 2ZM28.6318 6.91113L27.1829 7.29932L26.7947 5.85043L28.2436 5.46224L28.6318 6.91113ZM34.9062 30.3301L36.3551 29.9419L37.2923 33.4399L34.1562 31.6291L34.9062 30.3301ZM13.9102 18.207L12.6111 17.457L13.3612 16.158L14.6602 16.908L13.9102 18.207ZM4.42187 34.6406L3.67179 35.9396L2.37287 35.1896L3.12285 33.8906L4.42187 34.6406ZM25.418 46.7646L26.1681 45.4657L29.3039 47.2764L25.8062 48.2135L25.418 46.7646ZM2 53.0391L0.551109 53.4273L0.162886 51.9784L1.6118 51.5902L2 53.0391ZM6.91113 71.3682L7.29931 72.8171L5.85045 73.2052L5.46224 71.7564L6.91113 71.3682ZM30.3271 65.0947L29.939 63.6458L33.4367 62.7087L31.6262 65.8447L30.3271 65.0947ZM18.208 86.0859L17.458 87.3849L16.159 86.6349L16.909 85.3359L18.208 86.0859ZM34.6406 95.5742L35.9397 96.3242L35.1897 97.6233L33.8906 96.8732L34.6406 95.5742ZM46.7617 74.5791L45.4627 73.8291L47.2731 70.6932L48.2106 74.1908L46.7617 74.5791ZM53.0391 98L53.4273 99.4489L51.9785 99.8371L51.5902 98.3883L53.0391 98ZM71.3691 93.0889L69.9203 93.4771L63.6449 70.0592L65.0938 69.6709L66.5426 69.2826L72.818 92.7006L71.3691 93.0889ZM65.0938 69.6709L65.8437 68.3718L86.8398 80.4929L86.0898 81.792L85.3399 83.0911L64.3438 70.97L65.0938 69.6709ZM86.0898 81.792L84.7908 81.042L94.2791 64.6084L95.5781 65.3584L96.8772 66.1084L87.3889 82.542L86.0898 81.792ZM95.5781 65.3584L94.8282 66.6575L73.8301 54.5354L74.5801 53.2363L75.33 51.9373L96.3281 64.0593L95.5781 65.3584ZM74.5801 53.2363L74.1918 51.7874L97.6118 45.512L98 46.9609L98.3882 48.4098L74.9683 54.6852L74.5801 53.2363ZM98 46.9609L96.5511 47.3492L91.64 29.0201L93.0889 28.6318L94.5378 28.2436L99.4489 46.5727L98 46.9609ZM93.0889 28.6318L93.4771 30.0807L70.0543 36.3571L69.666 34.9082L69.2778 33.4593L92.7006 27.183L93.0889 28.6318ZM69.666 34.9082L68.367 34.1582L80.493 13.1562L81.792 13.9062L83.091 14.6563L70.965 35.6582L69.666 34.9082ZM81.792 13.9062L81.042 15.2053L64.6084 5.717L65.3584 4.41797L66.1084 3.11894L82.542 12.6072L81.792 13.9062ZM65.3584 4.41797L66.6574 5.16798L54.5334 26.167L53.2344 25.417L51.9353 24.667L64.0594 3.66796L65.3584 4.41797ZM53.2344 25.417L51.7855 25.8051L45.513 2.38811L46.9619 2L48.4108 1.61189L54.6833 25.0289L53.2344 25.417ZM46.9619 2L47.3501 3.4489L29.02 8.36003L28.6318 6.91113L28.2436 5.46224L46.5737 0.551103L46.9619 2ZM28.6318 6.91113L30.0807 6.52294L36.3551 29.9419L34.9062 30.3301L33.4574 30.7183L27.1829 7.29932L28.6318 6.91113ZM34.9062 30.3301L34.1562 31.6291L13.1601 19.506L13.9102 18.207L14.6602 16.908L35.6563 29.0311L34.9062 30.3301ZM13.9102 18.207L15.2092 18.9571L5.7209 35.3906L4.42187 34.6406L3.12285 33.8906L12.6111 17.457L13.9102 18.207ZM4.42187 34.6406L5.17196 33.3416L26.1681 45.4657L25.418 46.7646L24.6679 48.0636L3.67179 35.9396L4.42187 34.6406ZM25.418 46.7646L25.8062 48.2135L2.3882 54.488L2 53.0391L1.6118 51.5902L25.0298 45.3158L25.418 46.7646ZM2 53.0391L3.44889 52.6508L8.36002 70.9799L6.91113 71.3682L5.46224 71.7564L0.551109 53.4273L2 53.0391ZM6.91113 71.3682L6.52295 69.9193L29.939 63.6458L30.3271 65.0947L30.7153 66.5436L7.29931 72.8171L6.91113 71.3682ZM30.3271 65.0947L31.6262 65.8447L19.507 86.8359L18.208 86.0859L16.909 85.3359L29.0281 64.3447L30.3271 65.0947ZM18.208 86.0859L18.9581 84.7869L35.3907 94.2752L34.6406 95.5742L33.8906 96.8732L17.458 87.3849L18.208 86.0859ZM34.6406 95.5742L33.3416 94.8242L45.4627 73.8291L46.7617 74.5791L48.0608 75.3291L35.9397 96.3242L34.6406 95.5742ZM46.7617 74.5791L48.2106 74.1908L54.4879 97.6117L53.0391 98L51.5902 98.3883L45.3129 74.9674L46.7617 74.5791ZM53.0391 98L52.6509 96.5511L70.9809 91.64L71.3691 93.0889L71.7573 94.5378L53.4273 99.4489L53.0391 98Z" fill="#1E1E1E"/>
</svg>
