<svg width="2332" height="850" viewBox="0 0 2332 850" fill="none" xmlns="http://www.w3.org/2000/svg">
<path d="M1914.05 15.1434C1758.63 11.5101 1622.18 93.0578 1548.7 215.783C1542.25 226.279 1526.9 226.683 1520.85 216.187C1448.99 95.8837 1316.98 15.1434 1165.59 15.1434C1014.2 15.1434 882.193 95.8837 810.334 216.187C803.875 226.683 788.534 226.279 782.479 215.783C709.005 92.6541 572.554 11.1064 417.128 15.1434C201.552 20.3915 17.8674 204.883 15.0415 418.845C11.8119 648.148 197.515 834.658 427.625 834.658C578.609 834.658 711.023 753.918 782.882 633.615C788.938 623.118 804.279 623.118 810.738 633.615C882.597 753.918 1014.61 834.658 1166 834.658C1316.98 834.658 1449.39 753.918 1521.25 633.615C1527.31 623.118 1542.65 623.118 1549.11 633.615C1620.97 753.918 1752.98 834.658 1904.37 834.658C2134.07 834.658 2320.18 648.148 2316.95 418.845C2312.91 204.883 2129.63 20.3915 1914.05 15.1434Z" fill="#C3ECF6" stroke="#1E1E1E" stroke-width="30" stroke-miterlimit="10"/>
</svg>
