<svg width="216" height="173" viewBox="0 0 216 173" fill="none" xmlns="http://www.w3.org/2000/svg">
<g clip-path="url(#clip0_3742_2657)">
<path d="M13.6797 110.609L12.6895 110.6C9.5807 110.57 6.60872 109.316 4.41992 107.108C2.23125 104.901 1.00237 101.918 1 98.8096V73.6104L1.01465 73.0293C1.15962 70.132 2.36799 67.3813 4.41992 65.3115C6.60872 63.1037 9.5807 61.8495 12.6895 61.8203L13.6797 61.8105V32.5713C13.69 24.1996 17.0209 16.1737 22.9414 10.2549C28.6771 4.52094 36.3898 1.21847 44.4775 1.01074L45.2607 1H58.7256L59.3086 1.01758C62.2151 1.17486 64.9695 2.4006 67.0342 4.47168C69.0988 6.54277 70.3166 9.3011 70.4648 12.208L70.4805 12.792V34.7002H145.48V12.792C145.485 9.66617 146.729 6.66928 148.939 4.45898C151.012 2.3869 153.775 1.16431 156.688 1.01562L157.271 1H170.739L171.522 1.01074C179.61 1.21847 187.323 4.52094 193.059 10.2549C198.794 15.9886 202.099 23.6998 202.31 31.7871L202.32 32.5713V61.8105L203.311 61.8203C206.419 61.8495 209.391 63.1037 211.58 65.3115C213.769 67.5192 214.998 70.5016 215 73.6104V98.8096L214.985 99.3896C214.841 102.281 213.637 105.027 211.593 107.096C209.412 109.302 206.45 110.561 203.348 110.6L202.36 110.612V139.84C202.35 148.211 199.019 156.237 193.099 162.155C187.178 168.074 179.151 171.402 170.779 171.41H157.311C154.184 171.408 151.187 170.165 148.977 167.954C146.766 165.743 145.522 162.746 145.52 159.619V144H70.5195V159.63C70.5169 162.756 69.274 165.753 67.0635 167.964C64.8529 170.174 61.8557 171.417 58.7295 171.42H45.2607C36.8891 171.412 28.862 168.084 22.9414 162.165C17.0209 156.246 13.69 148.22 13.6797 139.849V110.609Z" fill="#FCE7F3" stroke="#F6339A" stroke-width="2"/>
<path d="M12.79 100.53H19.45C20.5904 100.53 21.6842 100.983 22.4906 101.79C23.297 102.596 23.75 103.69 23.75 104.83V139.83C23.75 142.654 24.3064 145.451 25.3875 148.06C26.4686 150.669 28.0532 153.04 30.0507 155.036C32.0483 157.033 34.4196 158.616 37.0292 159.696C39.6389 160.776 42.4357 161.331 45.26 161.33H58.73C59.1862 161.33 59.6237 161.149 59.9462 160.826C60.2688 160.504 60.45 160.066 60.45 159.61V135.51C60.45 135.054 60.2688 134.616 59.9462 134.294C59.6237 133.971 59.1862 133.79 58.73 133.79H49.25C48.1104 133.787 47.0182 133.334 46.2124 132.528C45.4065 131.722 44.9526 130.63 44.95 129.49V42.9401C44.95 41.7996 45.403 40.7059 46.2094 39.8995C47.0159 39.0931 48.1096 38.6401 49.25 38.6401H58.73C59.1862 38.6401 59.6237 38.4589 59.9462 38.1363C60.2688 37.8137 60.45 37.3762 60.45 36.9201V12.7901C60.45 12.3339 60.2688 11.8964 59.9462 11.5738C59.6237 11.2513 59.1862 11.0701 58.73 11.0701H45.26C39.5569 11.0701 34.0873 13.3349 30.0537 17.3667C26.02 21.3984 23.7527 26.867 23.75 32.5701V67.5701C23.7513 68.1351 23.641 68.6949 23.4254 69.2172C23.2097 69.7395 22.8931 70.214 22.4935 70.6136C22.0939 71.0131 21.6194 71.3298 21.0971 71.5454C20.5748 71.7611 20.0151 71.8714 19.45 71.8701H12.79C12.3338 71.8701 11.8963 72.0513 11.5738 72.3738C11.2512 72.6964 11.07 73.1339 11.07 73.5901V98.7901C11.0674 99.0176 11.1099 99.2434 11.1951 99.4544C11.2804 99.6654 11.4067 99.8574 11.5667 100.019C11.7266 100.181 11.9171 100.31 12.1271 100.397C12.3371 100.485 12.5624 100.53 12.79 100.53Z" fill="#FDE6A5" stroke="#111111" stroke-width="1.00634" stroke-miterlimit="10"/>
<path d="M203.21 100.53H196.55C195.41 100.53 194.316 100.983 193.509 101.79C192.703 102.596 192.25 103.69 192.25 104.83V139.83C192.25 142.654 191.694 145.451 190.612 148.06C189.531 150.669 187.947 153.04 185.949 155.036C183.952 157.033 181.58 158.616 178.971 159.696C176.361 160.776 173.564 161.331 170.74 161.33H157.27C156.814 161.33 156.376 161.149 156.054 160.826C155.731 160.504 155.55 160.066 155.55 159.61V135.51C155.55 135.054 155.731 134.616 156.054 134.294C156.376 133.971 156.814 133.79 157.27 133.79H166.75C167.89 133.787 168.982 133.334 169.788 132.528C170.593 131.722 171.047 130.63 171.05 129.49V42.9401C171.05 41.7996 170.597 40.7059 169.791 39.8995C168.984 39.0931 167.89 38.6401 166.75 38.6401H157.27C156.814 38.6401 156.376 38.4589 156.054 38.1363C155.731 37.8137 155.55 37.3762 155.55 36.9201V12.7901C155.55 12.3339 155.731 11.8964 156.054 11.5738C156.376 11.2513 156.814 11.0701 157.27 11.0701H170.74C176.443 11.0701 181.913 13.3349 185.946 17.3667C189.98 21.3984 192.247 26.867 192.25 32.5701V67.5701C192.249 68.1351 192.359 68.6949 192.575 69.2172C192.79 69.7395 193.107 70.214 193.506 70.6136C193.906 71.0131 194.381 71.3298 194.903 71.5454C195.425 71.7611 195.985 71.8714 196.55 71.8701H203.21C203.666 71.8701 204.104 72.0513 204.426 72.3738C204.749 72.6964 204.93 73.1339 204.93 73.5901V98.7901C204.933 99.0176 204.89 99.2434 204.805 99.4544C204.72 99.6654 204.593 99.8574 204.433 100.019C204.273 100.181 204.083 100.31 203.873 100.397C203.663 100.485 203.438 100.53 203.21 100.53Z" fill="#CEE6C2" stroke="#1D1D1D" stroke-width="1.00634" stroke-miterlimit="10"/>
<path d="M54.31 72V51.43H61.31C63.2778 51.3737 65.227 51.8248 66.97 52.74C68.5133 53.5733 69.784 54.8335 70.63 56.37C71.5087 58.0211 71.9494 59.87 71.91 61.74C71.9458 63.6128 71.5054 65.464 70.63 67.12C69.784 68.6564 68.5133 69.9167 66.97 70.75C65.2094 71.6406 63.2518 72.0706 61.28 72H54.31ZM58.2 68.32H61.11C62.4246 68.3608 63.7292 68.0793 64.91 67.5C65.8965 66.9842 66.6971 66.1731 67.2 65.18C67.704 64.082 67.9649 62.8881 67.9649 61.68C67.9649 60.4719 67.704 59.278 67.2 58.18C66.6938 57.1918 65.8938 56.3847 64.91 55.87C63.7292 55.2907 62.4246 55.0092 61.11 55.05H58.2V68.32Z" fill="#1D1D1D"/>
<path d="M81.43 72.4999C80.0304 72.5379 78.6471 72.1921 77.43 71.4999C76.2805 70.8491 75.3325 69.8941 74.69 68.7399C74.0129 67.5168 73.6681 66.1377 73.69 64.7399C73.6822 63.3787 74.0267 62.0386 74.69 60.8499C75.3322 59.6819 76.2658 58.7 77.4 57.9999C78.5651 57.2716 79.9162 56.8965 81.29 56.9199C82.6919 56.8602 84.0811 57.2075 85.29 57.9199C86.3465 58.5646 87.1965 59.498 87.74 60.6099C88.3096 61.7698 88.5975 63.0478 88.58 64.3399C88.58 64.6399 88.58 64.9099 88.58 65.1299C88.5685 65.2875 88.5485 65.4444 88.52 65.5999H75.85V62.9199H84.92C84.8909 62.5706 84.7923 62.2306 84.63 61.9199C84.451 61.5613 84.2069 61.2392 83.91 60.9699C83.5853 60.6689 83.2094 60.4284 82.8 60.2599C82.329 60.0753 81.8257 59.9869 81.32 59.9999C80.6123 59.9931 79.9178 60.191 79.32 60.5699C78.7065 60.963 78.212 61.5163 77.89 62.1699C77.5317 62.9322 77.357 63.7679 77.38 64.6099C77.3557 65.4714 77.541 66.3259 77.92 67.0999C78.2553 67.7472 78.7689 68.285 79.4 68.6499C80.0746 69.0084 80.8288 69.1908 81.5927 69.1804C82.3566 69.1699 83.1055 68.9668 83.77 68.5899C84.3623 68.2199 84.8564 67.7122 85.21 67.1099L88.26 68.6099C87.6092 69.7743 86.6776 70.7574 85.55 71.4699C84.3031 72.1993 82.8735 72.5567 81.43 72.4999Z" fill="#1D1D1D"/>
<path d="M94.87 72.0001L88.65 57.3601H92.94L96.65 66.9201H96.88L100.65 57.3601H104.89L98.61 72.0001H94.87Z" fill="#1D1D1D"/>
<path d="M106.74 71.9999V51.4299H119.81V55.1099H110.63V71.9999H106.74ZM108.9 63.7699V60.1199H118.9V63.8099L108.9 63.7699Z" fill="#1D1D1D"/>
<path d="M128.64 72.4999C127.24 72.5374 125.857 72.1916 124.64 71.4999C123.495 70.8434 122.548 69.8899 121.9 68.7399C121.253 67.5256 120.915 66.1708 120.915 64.7949C120.915 63.419 121.253 62.0643 121.9 60.8499C122.54 59.6806 123.474 58.6983 124.61 57.9999C125.772 57.2719 127.119 56.8967 128.49 56.9199C129.892 56.8626 131.28 57.2097 132.49 57.9199C133.544 58.5648 134.391 59.4984 134.93 60.6099C135.5 61.7698 135.787 63.0478 135.77 64.3399C135.77 64.6399 135.77 64.9099 135.77 65.1299C135.759 65.2876 135.739 65.4445 135.71 65.5999H123.05V62.9199H132.12C132.096 62.5697 131.997 62.2288 131.83 61.9199C131.651 61.5613 131.407 61.2392 131.11 60.9699C130.791 60.6668 130.418 60.4259 130.01 60.2599C129.536 60.073 129.03 59.9812 128.52 59.9899C127.812 59.9843 127.118 60.1821 126.52 60.5599C125.91 60.9545 125.419 61.5076 125.1 62.1599C124.734 62.9198 124.555 63.7567 124.58 64.5999C124.554 65.4627 124.743 66.3185 125.13 67.0899C125.46 67.7413 125.975 68.2806 126.61 68.6399C127.283 68.9975 128.036 69.1795 128.798 69.169C129.56 69.1586 130.307 68.9559 130.97 68.5799C131.562 68.21 132.056 67.7022 132.41 67.0999L135.46 68.5999C134.812 69.7631 133.884 70.7461 132.76 71.4599C131.513 72.1903 130.084 72.5509 128.64 72.4999Z" fill="#1D1D1D"/>
<path d="M143.66 72.5001C142.555 72.5287 141.456 72.3454 140.42 71.9601C139.602 71.6405 138.862 71.1495 138.25 70.5201C137.709 69.9418 137.287 69.262 137.01 68.5201L140.38 67.0501C140.647 67.6931 141.104 68.239 141.691 68.6144C142.277 68.9898 142.964 69.1767 143.66 69.1501C144.231 69.1576 144.798 69.0558 145.33 68.8501C145.56 68.7734 145.758 68.6231 145.893 68.4224C146.029 68.2217 146.095 67.9818 146.08 67.7401C146.088 67.5688 146.056 67.3981 145.989 67.2405C145.921 67.083 145.819 66.9427 145.69 66.8301C145.396 66.5921 145.055 66.4184 144.69 66.3201C144.304 66.1898 143.91 66.0862 143.51 66.0101L141.79 65.6401C141.081 65.4854 140.404 65.2079 139.79 64.8201C139.17 64.4429 138.643 63.9301 138.25 63.3201C137.852 62.6966 137.647 61.9696 137.66 61.2301C137.642 60.3989 137.91 59.5867 138.42 58.9301C138.969 58.2504 139.686 57.7264 140.5 57.4101C141.416 57.0325 142.399 56.8454 143.39 56.8601C144.285 56.8475 145.177 56.9619 146.04 57.2001C146.766 57.3986 147.446 57.7384 148.04 58.2001C148.63 58.6882 149.102 59.3036 149.42 60.0001L146.2 61.4101C145.941 60.8902 145.52 60.4689 145 60.2101C144.512 59.9789 143.98 59.8593 143.44 59.8601C142.896 59.8344 142.355 59.9626 141.88 60.2301C141.714 60.3175 141.573 60.4463 141.472 60.6039C141.37 60.7616 141.311 60.9428 141.3 61.1301C141.303 61.3325 141.358 61.5308 141.459 61.706C141.561 61.8811 141.706 62.0271 141.88 62.1301C142.298 62.4156 142.766 62.6192 143.26 62.7301L145.42 63.2501C146.657 63.4803 147.802 64.0598 148.72 64.9201C149.079 65.2832 149.363 65.7143 149.553 66.1882C149.744 66.6621 149.838 67.1693 149.83 67.6801C149.845 68.5912 149.549 69.4803 148.99 70.2001C148.403 70.9443 147.631 71.5204 146.75 71.8701C145.772 72.283 144.722 72.4972 143.66 72.5001Z" fill="#1D1D1D"/>
<path d="M151 60.58V57.36H153.7V60.58H151ZM158.42 72.27C157.77 72.3122 157.118 72.2213 156.504 72.003C155.89 71.7846 155.327 71.4433 154.85 71C154.404 70.5152 154.061 69.9459 153.839 69.3258C153.617 68.7057 153.522 68.0474 153.56 67.39V53.21H157.33V66.66C157.283 67.2177 157.436 67.7738 157.76 68.23C157.945 68.4101 158.167 68.548 158.41 68.6343C158.654 68.7206 158.913 68.7533 159.17 68.73C159.465 68.7339 159.759 68.69 160.04 68.6C160.391 68.4704 160.726 68.3028 161.04 68.1V71.78C160.625 71.9381 160.197 72.0586 159.76 72.14C159.319 72.2292 158.87 72.2728 158.42 72.27ZM157.19 60.58V57.36H160.93V60.58H157.19Z" fill="#1D1D1D"/>
<path d="M58.763 117.004C58.6914 116.785 58.597 116.589 58.4799 116.415C58.3649 116.239 58.2271 116.09 58.0666 115.966C57.9082 115.842 57.7282 115.748 57.5264 115.683C57.3246 115.618 57.1033 115.585 56.8625 115.585C56.4677 115.585 56.1086 115.687 55.7854 115.891C55.4621 116.095 55.205 116.395 55.0141 116.792C54.8232 117.189 54.7278 117.677 54.7278 118.254C54.7278 118.831 54.8243 119.318 55.0174 119.715C55.2105 120.112 55.4719 120.412 55.8017 120.616C56.1314 120.82 56.5024 120.922 56.9146 120.922C57.2964 120.922 57.6327 120.841 57.9234 120.678C58.2163 120.513 58.4441 120.281 58.6068 119.982C58.7717 119.68 58.8541 119.325 58.8541 118.917L59.1015 118.97H57.0968V118.254H59.6351V118.97C59.6351 119.518 59.518 119.996 59.2837 120.401C59.0516 120.807 58.7305 121.122 58.3204 121.345C57.9126 121.566 57.444 121.677 56.9146 121.677C56.3245 121.677 55.806 121.538 55.3591 121.261C54.9143 120.983 54.5672 120.588 54.3177 120.076C54.0704 119.564 53.9467 118.957 53.9467 118.254C53.9467 117.726 54.0172 117.252 54.1583 116.831C54.3014 116.408 54.5032 116.048 54.7636 115.751C55.0239 115.454 55.332 115.226 55.6878 115.068C56.0436 114.909 56.4351 114.83 56.8625 114.83C57.214 114.83 57.5416 114.883 57.8453 114.99C58.1512 115.094 58.4235 115.242 58.6621 115.435C58.9029 115.626 59.1036 115.855 59.2642 116.122C59.4247 116.387 59.5354 116.681 59.5961 117.004H58.763ZM62.9439 121.69C62.4926 121.69 62.0967 121.583 61.7561 121.368C61.4177 121.153 61.153 120.853 60.9621 120.466C60.7733 120.08 60.6789 119.629 60.6789 119.113C60.6789 118.592 60.7733 118.138 60.9621 117.749C61.153 117.361 61.4177 117.059 61.7561 116.845C62.0967 116.63 62.4926 116.522 62.9439 116.522C63.3952 116.522 63.79 116.63 64.1284 116.845C64.4691 117.059 64.7337 117.361 64.9225 117.749C65.1134 118.138 65.2088 118.592 65.2088 119.113C65.2088 119.629 65.1134 120.08 64.9225 120.466C64.7337 120.853 64.4691 121.153 64.1284 121.368C63.79 121.583 63.3952 121.69 62.9439 121.69ZM62.9439 121C63.2867 121 63.5687 120.912 63.79 120.737C64.0113 120.561 64.1751 120.33 64.2814 120.043C64.3877 119.757 64.4408 119.447 64.4408 119.113C64.4408 118.779 64.3877 118.467 64.2814 118.179C64.1751 117.89 64.0113 117.657 63.79 117.479C63.5687 117.301 63.2867 117.212 62.9439 117.212C62.6011 117.212 62.3191 117.301 62.0978 117.479C61.8765 117.657 61.7127 117.89 61.6064 118.179C61.5001 118.467 61.4469 118.779 61.4469 119.113C61.4469 119.447 61.5001 119.757 61.6064 120.043C61.7127 120.33 61.8765 120.561 62.0978 120.737C62.3191 120.912 62.6011 121 62.9439 121ZM68.4118 121.69C67.9606 121.69 67.5646 121.583 67.224 121.368C66.8856 121.153 66.6209 120.853 66.43 120.466C66.2413 120.08 66.1469 119.629 66.1469 119.113C66.1469 118.592 66.2413 118.138 66.43 117.749C66.6209 117.361 66.8856 117.059 67.224 116.845C67.5646 116.63 67.9606 116.522 68.4118 116.522C68.8631 116.522 69.2579 116.63 69.5964 116.845C69.937 117.059 70.2017 117.361 70.3904 117.749C70.5813 118.138 70.6768 118.592 70.6768 119.113C70.6768 119.629 70.5813 120.08 70.3904 120.466C70.2017 120.853 69.937 121.153 69.5964 121.368C69.2579 121.583 68.8631 121.69 68.4118 121.69ZM68.4118 121C68.7546 121 69.0366 120.912 69.2579 120.737C69.4792 120.561 69.643 120.33 69.7493 120.043C69.8556 119.757 69.9088 119.447 69.9088 119.113C69.9088 118.779 69.8556 118.467 69.7493 118.179C69.643 117.89 69.4792 117.657 69.2579 117.479C69.0366 117.301 68.7546 117.212 68.4118 117.212C68.0691 117.212 67.787 117.301 67.5657 117.479C67.3444 117.657 67.1806 117.89 67.0743 118.179C66.968 118.467 66.9149 118.779 66.9149 119.113C66.9149 119.447 66.968 119.757 67.0743 120.043C67.1806 120.33 67.3444 120.561 67.5657 120.737C67.787 120.912 68.0691 121 68.4118 121ZM73.8668 123.565C73.4958 123.565 73.1769 123.517 72.91 123.421C72.6432 123.328 72.4208 123.204 72.2429 123.05C72.0672 122.898 71.9272 122.736 71.8231 122.562L72.4349 122.133C72.5043 122.224 72.5922 122.328 72.6985 122.445C72.8048 122.564 72.9501 122.667 73.1346 122.754C73.3211 122.843 73.5652 122.888 73.8668 122.888C74.2703 122.888 74.6033 122.79 74.8658 122.595C75.1283 122.399 75.2596 122.094 75.2596 121.677V120.662H75.1945C75.1381 120.753 75.0578 120.866 74.9537 121C74.8517 121.133 74.7042 121.251 74.5111 121.355C74.3202 121.457 74.062 121.508 73.7366 121.508C73.3331 121.508 72.9708 121.412 72.6497 121.221C72.3308 121.031 72.078 120.753 71.8914 120.388C71.707 120.024 71.6148 119.581 71.6148 119.061C71.6148 118.549 71.7049 118.103 71.8849 117.723C72.065 117.341 72.3156 117.046 72.6367 116.838C72.9577 116.628 73.3287 116.522 73.7496 116.522C74.075 116.522 74.3332 116.577 74.5241 116.685C74.7172 116.791 74.8647 116.913 74.9667 117.05C75.0708 117.184 75.1511 117.295 75.2075 117.381H75.2856V116.587H76.0276V121.729C76.0276 122.159 75.9299 122.508 75.7347 122.777C75.5416 123.048 75.2813 123.247 74.9537 123.373C74.6282 123.501 74.2659 123.565 73.8668 123.565ZM73.8407 120.818C74.1488 120.818 74.4091 120.747 74.6217 120.606C74.8343 120.465 74.996 120.263 75.1066 119.998C75.2173 119.733 75.2726 119.416 75.2726 119.048C75.2726 118.687 75.2183 118.37 75.1099 118.094C75.0014 117.819 74.8409 117.603 74.6282 117.447C74.4156 117.29 74.1531 117.212 73.8407 117.212C73.5153 117.212 73.2441 117.295 73.0272 117.46C72.8124 117.624 72.6508 117.846 72.5423 118.123C72.436 118.401 72.3828 118.709 72.3828 119.048C72.3828 119.395 72.4371 119.702 72.5455 119.969C72.6562 120.233 72.8189 120.442 73.0337 120.593C73.2506 120.743 73.5196 120.818 73.8407 120.818ZM78.2014 114.921V121.586H77.4334V114.921H78.2014ZM81.7038 121.69C81.2222 121.69 80.8067 121.584 80.4574 121.371C80.1103 121.156 79.8424 120.857 79.6536 120.473C79.467 120.087 79.3737 119.638 79.3737 119.126C79.3737 118.614 79.467 118.162 79.6536 117.772C79.8424 117.379 80.1049 117.073 80.4411 116.854C80.7796 116.633 81.1744 116.522 81.6257 116.522C81.886 116.522 82.1431 116.566 82.3969 116.653C82.6508 116.739 82.8818 116.88 83.0901 117.076C83.2984 117.269 83.4643 117.525 83.588 117.844C83.7116 118.162 83.7735 118.555 83.7735 119.022V119.347H79.9205V118.683H82.9925C82.9925 118.401 82.9361 118.149 82.8232 117.928C82.7126 117.707 82.5542 117.532 82.3481 117.404C82.1442 117.276 81.9034 117.212 81.6257 117.212C81.3198 117.212 81.0551 117.288 80.8316 117.44C80.6104 117.59 80.44 117.785 80.3207 118.026C80.2014 118.267 80.1417 118.525 80.1417 118.8V119.243C80.1417 119.62 80.2068 119.94 80.337 120.203C80.4693 120.463 80.6527 120.662 80.887 120.798C81.1213 120.933 81.3935 121 81.7038 121C81.9055 121 82.0878 120.972 82.2505 120.916C82.4154 120.857 82.5575 120.77 82.6768 120.655C82.7961 120.538 82.8883 120.393 82.9534 120.219L83.6954 120.427C83.6173 120.679 83.486 120.9 83.3016 121.091C83.1172 121.28 82.8894 121.428 82.6182 121.534C82.347 121.638 82.0422 121.69 81.7038 121.69ZM89.6799 121.586H87.6232V114.921H89.771C90.4175 114.921 90.9708 115.055 91.4307 115.322C91.8906 115.586 92.2432 115.967 92.4883 116.464C92.7335 116.958 92.8561 117.551 92.8561 118.241C92.8561 118.935 92.7324 119.533 92.4851 120.034C92.2378 120.533 91.8776 120.917 91.4047 121.186C90.9317 121.453 90.3568 121.586 89.6799 121.586ZM88.4303 120.87H89.6279C90.1789 120.87 90.6356 120.764 90.9979 120.551C91.3602 120.338 91.6303 120.036 91.8082 119.643C91.9861 119.25 92.075 118.783 92.075 118.241C92.075 117.703 91.9872 117.239 91.8114 116.851C91.6357 116.461 91.3732 116.161 91.0239 115.953C90.6746 115.742 90.2396 115.637 89.719 115.637H88.4303V120.87ZM96.2014 121.69C95.7198 121.69 95.3043 121.584 94.955 121.371C94.6079 121.156 94.34 120.857 94.1512 120.473C93.9647 120.087 93.8714 119.638 93.8714 119.126C93.8714 118.614 93.9647 118.162 94.1512 117.772C94.34 117.379 94.6025 117.073 94.9388 116.854C95.2772 116.633 95.6721 116.522 96.1233 116.522C96.3837 116.522 96.6407 116.566 96.8946 116.653C97.1484 116.739 97.3795 116.88 97.5877 117.076C97.796 117.269 97.962 117.525 98.0856 117.844C98.2093 118.162 98.2711 118.555 98.2711 119.022V119.347H94.4181V118.683H97.4901C97.4901 118.401 97.4337 118.149 97.3209 117.928C97.2102 117.707 97.0519 117.532 96.8458 117.404C96.6418 117.276 96.401 117.212 96.1233 117.212C95.8174 117.212 95.5527 117.288 95.3293 117.44C95.108 117.59 94.9377 117.785 94.8184 118.026C94.699 118.267 94.6394 118.525 94.6394 118.8V119.243C94.6394 119.62 94.7045 119.94 94.8346 120.203C94.967 120.463 95.1503 120.662 95.3846 120.798C95.6189 120.933 95.8912 121 96.2014 121C96.4032 121 96.5854 120.972 96.7481 120.916C96.913 120.857 97.0551 120.77 97.1744 120.655C97.2938 120.538 97.386 120.393 97.451 120.219L98.193 120.427C98.1149 120.679 97.9837 120.9 97.7992 121.091C97.6148 121.28 97.387 121.428 97.1159 121.534C96.8447 121.638 96.5399 121.69 96.2014 121.69ZM103.375 116.587L101.526 121.586H100.745L98.8967 116.587H99.7298L101.11 120.571H101.162L102.541 116.587H103.375ZM106.305 121.69C105.823 121.69 105.408 121.584 105.059 121.371C104.712 121.156 104.444 120.857 104.255 120.473C104.068 120.087 103.975 119.638 103.975 119.126C103.975 118.614 104.068 118.162 104.255 117.772C104.444 117.379 104.706 117.073 105.042 116.854C105.381 116.633 105.776 116.522 106.227 116.522C106.487 116.522 106.744 116.566 106.998 116.653C107.252 116.739 107.483 116.88 107.691 117.076C107.9 117.269 108.066 117.525 108.189 117.844C108.313 118.162 108.375 118.555 108.375 119.022V119.347H104.522V118.683H107.594C107.594 118.401 107.537 118.149 107.424 117.928C107.314 117.707 107.155 117.532 106.949 117.404C106.745 117.276 106.505 117.212 106.227 117.212C105.921 117.212 105.656 117.288 105.433 117.44C105.212 117.59 105.041 117.785 104.922 118.026C104.803 118.267 104.743 118.525 104.743 118.8V119.243C104.743 119.62 104.808 119.94 104.938 120.203C105.071 120.463 105.254 120.662 105.488 120.798C105.723 120.933 105.995 121 106.305 121C106.507 121 106.689 120.972 106.852 120.916C107.017 120.857 107.159 120.77 107.278 120.655C107.397 120.538 107.49 120.393 107.555 120.219L108.297 120.427C108.219 120.679 108.087 120.9 107.903 121.091C107.718 121.28 107.491 121.428 107.219 121.534C106.948 121.638 106.643 121.69 106.305 121.69ZM110.311 114.921V121.586H109.543V114.921H110.311ZM113.748 121.69C113.297 121.69 112.901 121.583 112.56 121.368C112.222 121.153 111.957 120.853 111.766 120.466C111.578 120.08 111.483 119.629 111.483 119.113C111.483 118.592 111.578 118.138 111.766 117.749C111.957 117.361 112.222 117.059 112.56 116.845C112.901 116.63 113.297 116.522 113.748 116.522C114.2 116.522 114.594 116.63 114.933 116.845C115.273 117.059 115.538 117.361 115.727 117.749C115.918 118.138 116.013 118.592 116.013 119.113C116.013 119.629 115.918 120.08 115.727 120.466C115.538 120.853 115.273 121.153 114.933 121.368C114.594 121.583 114.2 121.69 113.748 121.69ZM113.748 121C114.091 121 114.373 120.912 114.594 120.737C114.816 120.561 114.979 120.33 115.086 120.043C115.192 119.757 115.245 119.447 115.245 119.113C115.245 118.779 115.192 118.467 115.086 118.179C114.979 117.89 114.816 117.657 114.594 117.479C114.373 117.301 114.091 117.212 113.748 117.212C113.406 117.212 113.123 117.301 112.902 117.479C112.681 117.657 112.517 117.89 112.411 118.179C112.304 118.467 112.251 118.779 112.251 119.113C112.251 119.447 112.304 119.757 112.411 120.043C112.517 120.33 112.681 120.561 112.902 120.737C113.123 120.912 113.406 121 113.748 121ZM117.186 123.46V116.587H117.928V117.381H118.019C118.075 117.295 118.153 117.184 118.253 117.05C118.355 116.913 118.5 116.791 118.689 116.685C118.88 116.577 119.138 116.522 119.464 116.522C119.884 116.522 120.255 116.628 120.576 116.838C120.898 117.048 121.148 117.347 121.328 117.733C121.508 118.119 121.598 118.575 121.598 119.1C121.598 119.629 121.508 120.088 121.328 120.476C121.148 120.862 120.899 121.162 120.58 121.374C120.261 121.585 119.893 121.69 119.477 121.69C119.155 121.69 118.898 121.637 118.705 121.531C118.512 121.422 118.364 121.3 118.259 121.163C118.155 121.024 118.075 120.909 118.019 120.818H117.954V123.46H117.186ZM117.941 119.087C117.941 119.464 117.996 119.797 118.107 120.086C118.217 120.372 118.379 120.597 118.591 120.759C118.804 120.92 119.064 121 119.372 121C119.694 121 119.961 120.916 120.176 120.746C120.393 120.575 120.556 120.345 120.664 120.056C120.775 119.766 120.83 119.442 120.83 119.087C120.83 118.735 120.776 118.418 120.668 118.136C120.561 117.852 120.4 117.628 120.183 117.463C119.968 117.296 119.698 117.212 119.372 117.212C119.06 117.212 118.798 117.291 118.585 117.45C118.372 117.606 118.212 117.825 118.103 118.107C117.995 118.387 117.941 118.714 117.941 119.087ZM124.866 121.69C124.384 121.69 123.968 121.584 123.619 121.371C123.272 121.156 123.004 120.857 122.815 120.473C122.629 120.087 122.536 119.638 122.536 119.126C122.536 118.614 122.629 118.162 122.815 117.772C123.004 117.379 123.267 117.073 123.603 116.854C123.941 116.633 124.336 116.522 124.787 116.522C125.048 116.522 125.305 116.566 125.559 116.653C125.813 116.739 126.044 116.88 126.252 117.076C126.46 117.269 126.626 117.525 126.75 117.844C126.873 118.162 126.935 118.555 126.935 119.022V119.347H123.082V118.683H126.154C126.154 118.401 126.098 118.149 125.985 117.928C125.874 117.707 125.716 117.532 125.51 117.404C125.306 117.276 125.065 117.212 124.787 117.212C124.482 117.212 124.217 117.288 123.993 117.44C123.772 117.59 123.602 117.785 123.483 118.026C123.363 118.267 123.304 118.525 123.304 118.8V119.243C123.304 119.62 123.369 119.94 123.499 120.203C123.631 120.463 123.814 120.662 124.049 120.798C124.283 120.933 124.555 121 124.866 121C125.067 121 125.25 120.972 125.412 120.916C125.577 120.857 125.719 120.77 125.839 120.655C125.958 120.538 126.05 120.393 126.115 120.219L126.857 120.427C126.779 120.679 126.648 120.9 126.463 121.091C126.279 121.28 126.051 121.428 125.78 121.534C125.509 121.638 125.204 121.69 124.866 121.69ZM128.104 121.586V116.587H128.846V117.342H128.898C128.989 117.095 129.154 116.894 129.392 116.74C129.631 116.586 129.9 116.509 130.199 116.509C130.256 116.509 130.326 116.51 130.411 116.513C130.495 116.515 130.559 116.518 130.603 116.522V117.303C130.577 117.297 130.517 117.287 130.424 117.274C130.333 117.259 130.236 117.251 130.134 117.251C129.891 117.251 129.674 117.302 129.483 117.404C129.295 117.504 129.145 117.643 129.034 117.821C128.926 117.997 128.872 118.197 128.872 118.423V121.586H128.104ZM138.751 117.004C138.679 116.785 138.585 116.589 138.467 116.415C138.353 116.239 138.215 116.09 138.054 115.966C137.896 115.842 137.716 115.748 137.514 115.683C137.312 115.618 137.091 115.585 136.85 115.585C136.455 115.585 136.096 115.687 135.773 115.891C135.45 116.095 135.193 116.395 135.002 116.792C134.811 117.189 134.715 117.677 134.715 118.254C134.715 118.831 134.812 119.318 135.005 119.715C135.198 120.112 135.459 120.412 135.789 120.616C136.119 120.82 136.49 120.922 136.902 120.922C137.284 120.922 137.62 120.841 137.911 120.678C138.204 120.513 138.432 120.281 138.594 119.982C138.759 119.68 138.842 119.325 138.842 118.917L139.089 118.97H137.084V118.254H139.623V118.97C139.623 119.518 139.506 119.996 139.271 120.401C139.039 120.807 138.718 121.122 138.308 121.345C137.9 121.566 137.432 121.677 136.902 121.677C136.312 121.677 135.794 121.538 135.347 121.261C134.902 120.983 134.555 120.588 134.305 120.076C134.058 119.564 133.934 118.957 133.934 118.254C133.934 117.726 134.005 117.252 134.146 116.831C134.289 116.408 134.491 116.048 134.751 115.751C135.011 115.454 135.32 115.226 135.675 115.068C136.031 114.909 136.423 114.83 136.85 114.83C137.202 114.83 137.529 114.883 137.833 114.99C138.139 115.094 138.411 115.242 138.65 115.435C138.891 115.626 139.091 115.855 139.252 116.122C139.412 116.387 139.523 116.681 139.584 117.004H138.751ZM140.901 121.586V116.587H141.643V117.342H141.695C141.786 117.095 141.951 116.894 142.19 116.74C142.428 116.586 142.697 116.509 142.997 116.509C143.053 116.509 143.123 116.51 143.208 116.513C143.293 116.515 143.357 116.518 143.4 116.522V117.303C143.374 117.297 143.314 117.287 143.221 117.274C143.13 117.259 143.033 117.251 142.931 117.251C142.689 117.251 142.472 117.302 142.281 117.404C142.092 117.504 141.942 117.643 141.832 117.821C141.723 117.997 141.669 118.197 141.669 118.423V121.586H140.901ZM146.189 121.69C145.738 121.69 145.342 121.583 145.001 121.368C144.663 121.153 144.398 120.853 144.207 120.466C144.018 120.08 143.924 119.629 143.924 119.113C143.924 118.592 144.018 118.138 144.207 117.749C144.398 117.361 144.663 117.059 145.001 116.845C145.342 116.63 145.738 116.522 146.189 116.522C146.64 116.522 147.035 116.63 147.374 116.845C147.714 117.059 147.979 117.361 148.168 117.749C148.358 118.138 148.454 118.592 148.454 119.113C148.454 119.629 148.358 120.08 148.168 120.466C147.979 120.853 147.714 121.153 147.374 121.368C147.035 121.583 146.64 121.69 146.189 121.69ZM146.189 121C146.532 121 146.814 120.912 147.035 120.737C147.256 120.561 147.42 120.33 147.526 120.043C147.633 119.757 147.686 119.447 147.686 119.113C147.686 118.779 147.633 118.467 147.526 118.179C147.42 117.89 147.256 117.657 147.035 117.479C146.814 117.301 146.532 117.212 146.189 117.212C145.846 117.212 145.564 117.301 145.343 117.479C145.122 117.657 144.958 117.89 144.851 118.179C144.745 118.467 144.692 118.779 144.692 119.113C144.692 119.447 144.745 119.757 144.851 120.043C144.958 120.33 145.122 120.561 145.343 120.737C145.564 120.912 145.846 121 146.189 121ZM152.776 119.542V116.587H153.544V121.586H152.776V120.74H152.724C152.607 120.994 152.425 121.21 152.178 121.387C151.93 121.563 151.618 121.651 151.24 121.651C150.928 121.651 150.65 121.583 150.407 121.446C150.164 121.307 149.973 121.099 149.835 120.821C149.696 120.541 149.626 120.189 149.626 119.764V116.587H150.394V119.711C150.394 120.076 150.496 120.367 150.7 120.584C150.906 120.801 151.169 120.909 151.488 120.909C151.679 120.909 151.873 120.86 152.07 120.763C152.27 120.665 152.437 120.515 152.571 120.314C152.708 120.112 152.776 119.855 152.776 119.542ZM154.951 123.46V116.587H155.693V117.381H155.784C155.841 117.295 155.919 117.184 156.018 117.05C156.12 116.913 156.266 116.791 156.454 116.685C156.645 116.577 156.904 116.522 157.229 116.522C157.65 116.522 158.021 116.628 158.342 116.838C158.663 117.048 158.914 117.347 159.094 117.733C159.274 118.119 159.364 118.575 159.364 119.1C159.364 119.629 159.274 120.088 159.094 120.476C158.914 120.862 158.664 121.162 158.345 121.374C158.026 121.585 157.659 121.69 157.242 121.69C156.921 121.69 156.664 121.637 156.471 121.531C156.278 121.422 156.129 121.3 156.025 121.163C155.921 121.024 155.841 120.909 155.784 120.818H155.719V123.46H154.951ZM155.706 119.087C155.706 119.464 155.761 119.797 155.872 120.086C155.983 120.372 156.144 120.597 156.357 120.759C156.569 120.92 156.83 121 157.138 121C157.459 121 157.727 120.916 157.942 120.746C158.159 120.575 158.321 120.345 158.43 120.056C158.54 119.766 158.596 119.442 158.596 119.087C158.596 118.735 158.542 118.418 158.433 118.136C158.327 117.852 158.165 117.628 157.948 117.463C157.733 117.296 157.463 117.212 157.138 117.212C156.825 117.212 156.563 117.291 156.35 117.45C156.138 117.606 155.977 117.825 155.869 118.107C155.76 118.387 155.706 118.714 155.706 119.087ZM164.076 117.707L163.386 117.902C163.343 117.787 163.279 117.675 163.194 117.567C163.112 117.456 162.999 117.365 162.856 117.294C162.712 117.222 162.529 117.186 162.306 117.186C162 117.186 161.745 117.257 161.541 117.398C161.339 117.537 161.238 117.713 161.238 117.928C161.238 118.119 161.308 118.27 161.446 118.381C161.585 118.491 161.802 118.583 162.097 118.657L162.839 118.839C163.286 118.948 163.619 119.114 163.838 119.337C164.057 119.559 164.167 119.844 164.167 120.193C164.167 120.479 164.085 120.735 163.92 120.961C163.757 121.187 163.529 121.365 163.236 121.495C162.943 121.625 162.603 121.69 162.214 121.69C161.705 121.69 161.283 121.579 160.949 121.358C160.614 121.137 160.403 120.814 160.314 120.388L161.043 120.206C161.112 120.475 161.244 120.677 161.437 120.811C161.632 120.946 161.887 121.013 162.201 121.013C162.559 121.013 162.844 120.937 163.054 120.785C163.267 120.631 163.373 120.447 163.373 120.232C163.373 120.059 163.312 119.913 163.191 119.796C163.069 119.677 162.883 119.588 162.631 119.529L161.798 119.334C161.34 119.226 161.004 119.057 160.789 118.83C160.577 118.6 160.47 118.312 160.47 117.967C160.47 117.685 160.549 117.436 160.708 117.219C160.868 117.002 161.086 116.831 161.362 116.708C161.64 116.584 161.954 116.522 162.306 116.522C162.8 116.522 163.189 116.631 163.471 116.848C163.755 117.065 163.957 117.351 164.076 117.707Z" fill="#1D1D1D"/>
<path d="M147.44 80H127.65C120.111 80 114 86.1113 114 93.65C114 101.189 120.111 107.3 127.65 107.3H147.44C154.979 107.3 161.09 101.189 161.09 93.65C161.09 86.1113 154.979 80 147.44 80Z" fill="white" stroke="#1E1E1E" stroke-width="1.00634" stroke-miterlimit="10"/>
<path d="M125 97.7213V96.7213C125.078 96.6489 125.151 96.5721 125.22 96.4913L125.67 95.9913L126.26 95.3313L126.9 94.6213L127.5 93.9613L127.94 93.4913C128.255 93.1625 128.533 92.8003 128.77 92.4113C128.946 92.1074 129.039 91.7625 129.04 91.4113C129.043 91.1584 128.978 90.9095 128.85 90.6913C128.72 90.4699 128.534 90.287 128.31 90.1613C128.058 90.0263 127.776 89.9575 127.49 89.9613C127.221 89.9576 126.956 90.0231 126.72 90.1513C126.513 90.2699 126.333 90.4299 126.19 90.6213C126.07 90.7822 125.985 90.966 125.94 91.1613L125.02 90.7913C125.077 90.5938 125.161 90.4053 125.27 90.2313C125.411 90.0138 125.579 89.8155 125.77 89.6413C125.992 89.4458 126.245 89.2902 126.52 89.1813C126.839 89.0583 127.178 88.9972 127.52 89.0013C127.996 88.9864 128.467 89.1041 128.88 89.3413C129.244 89.5585 129.547 89.8648 129.76 90.2313C129.967 90.5862 130.074 90.9905 130.07 91.4013C130.064 91.7471 129.986 92.0878 129.84 92.4013C129.698 92.7557 129.513 93.0914 129.29 93.4013C129.103 93.6637 128.896 93.9111 128.67 94.1413L128.25 94.5913L127.67 95.2213L127.06 95.8913L126.54 96.4513C126.4 96.6113 126.29 96.7113 126.24 96.7713H130.14V97.7713L125 97.7213Z" fill="#1D1D1D"/>
<path d="M134.45 97.98C133.977 97.9855 133.511 97.8647 133.1 97.63C132.704 97.3869 132.363 97.0632 132.1 96.68C131.806 96.2458 131.587 95.766 131.45 95.26C131.291 94.6906 131.213 94.1013 131.22 93.51C131.212 92.922 131.29 92.3359 131.45 91.77C131.587 91.261 131.806 90.7778 132.1 90.34C132.352 89.9339 132.694 89.5916 133.1 89.34C133.515 89.1168 133.979 89 134.45 89C134.921 89 135.385 89.1168 135.8 89.34C136.208 89.5889 136.551 89.9318 136.8 90.34C137.094 90.7778 137.313 91.261 137.45 91.77C137.605 92.3369 137.683 92.9223 137.68 93.51C137.682 94.101 137.605 94.6896 137.45 95.26C137.313 95.766 137.094 96.2458 136.8 96.68C136.539 97.0648 136.198 97.3888 135.8 97.63C135.389 97.8647 134.923 97.9855 134.45 97.98ZM134.45 96.98C134.892 96.9891 135.319 96.8239 135.64 96.52C135.996 96.1692 136.26 95.7366 136.41 95.26C136.77 94.1007 136.77 92.8594 136.41 91.7C136.261 91.226 135.996 90.7965 135.64 90.45C135.318 90.1477 134.892 89.9795 134.45 89.9795C134.008 89.9795 133.582 90.1477 133.26 90.45C132.907 90.7976 132.646 91.227 132.5 91.7C132.14 92.8594 132.14 94.1007 132.5 95.26C132.65 95.7341 132.911 96.1659 133.26 96.52C133.581 96.8239 134.008 96.9891 134.45 96.98Z" fill="#1D1D1D"/>
<path d="M138.58 97.7213V96.7213L138.8 96.4913L139.25 95.9913L139.84 95.3313L140.48 94.6213L141.08 93.9613L141.52 93.4913C141.832 93.1599 142.11 92.7981 142.35 92.4113C142.526 92.1075 142.619 91.7626 142.62 91.4113C142.62 91.1575 142.551 90.9085 142.42 90.6913C142.296 90.4654 142.108 90.281 141.88 90.1613C141.628 90.0251 141.346 89.9562 141.06 89.9613C140.791 89.959 140.527 90.0244 140.29 90.1513C140.086 90.2701 139.909 90.4302 139.77 90.6213C139.648 90.7818 139.559 90.9655 139.51 91.1613L138.59 90.7913C138.655 90.5954 138.742 90.4075 138.85 90.2313C138.986 90.0137 139.151 89.8153 139.34 89.6413C139.564 89.4437 139.821 89.2878 140.1 89.1813C140.419 89.0571 140.758 88.996 141.1 89.0013C141.579 88.9861 142.053 89.1038 142.47 89.3413C142.834 89.5586 143.137 89.8648 143.35 90.2313C143.552 90.5881 143.659 90.9911 143.66 91.4013C143.65 91.7465 143.572 92.0864 143.43 92.4013C143.288 92.7557 143.103 93.0915 142.88 93.4013C142.693 93.6638 142.486 93.9112 142.26 94.1413L141.84 94.5913L141.26 95.2213L140.65 95.8913L140.13 96.4513L139.82 96.7713H143.73V97.7713L138.58 97.7213Z" fill="#1D1D1D"/>
<path d="M147.275 97.98C146.862 97.98 146.453 97.8945 146.049 97.7234C145.645 97.5438 145.288 97.2787 144.978 96.9281C144.668 96.5689 144.449 96.1284 144.32 95.6067L145.288 95.2219C145.417 95.7436 145.653 96.1626 145.997 96.4791C146.35 96.7869 146.767 96.9409 147.249 96.9409C147.825 96.9409 148.294 96.7656 148.655 96.4149C149.016 96.0643 149.197 95.6067 149.197 95.0423C149.197 94.4864 149.016 94.0288 148.655 93.6696C148.303 93.3018 147.842 93.118 147.275 93.118C146.965 93.118 146.673 93.1907 146.397 93.3361C146.122 93.4729 145.898 93.6653 145.726 93.9133L144.604 93.4259L145.184 89H149.752V90.0391H146.088L145.739 92.6946L145.791 92.7075C146.247 92.3226 146.806 92.1302 147.468 92.1302C147.976 92.1302 148.444 92.2542 148.875 92.5022C149.313 92.7502 149.662 93.0966 149.92 93.5413C150.178 93.986 150.307 94.4821 150.307 95.0294C150.307 95.5768 150.173 96.0771 149.907 96.5304C149.649 96.9751 149.287 97.33 148.823 97.5951C148.358 97.8517 147.842 97.98 147.275 97.98Z" fill="#1D1D1D"/>
<path d="M67.98 80.7067L56.5458 88.923C54.1419 90.6504 53.5921 93.9978 55.3179 96.3995C57.0437 98.8012 60.3916 99.3478 62.7955 97.6204L74.2297 89.4042C76.6337 87.6767 77.1834 84.3294 75.4576 81.9277C73.7318 79.5259 70.3839 78.9793 67.98 80.7067Z" fill="#EA4535" stroke="#111111" stroke-width="1.00634" stroke-miterlimit="10"/>
<path d="M62.7991 88.9123C60.3952 87.1849 57.0473 87.7315 55.3215 90.1332C53.5957 92.535 54.1455 95.8823 56.5494 97.6097L67.9836 105.826C70.3875 107.553 73.7354 107.007 75.4612 104.605C77.187 102.203 76.6372 98.856 74.2333 97.1286L62.7991 88.9123Z" fill="#557DBF" stroke="#111111" stroke-width="1.00634" stroke-miterlimit="10"/>
<path d="M95.6308 88.9272L84.1966 97.1435C81.7927 98.8709 81.2429 102.218 82.9687 104.62C84.6946 107.022 88.0424 107.568 90.4464 105.841L101.881 97.6246C104.284 95.8972 104.834 92.5499 103.108 90.1481C101.383 87.7464 98.0347 87.1998 95.6308 88.9272Z" fill="#F7AC1A" stroke="#111111" stroke-width="1.00634" stroke-miterlimit="10"/>
<path d="M90.4348 80.6838C88.0308 78.9564 84.683 79.503 82.9571 81.9047C81.2313 84.3064 81.7811 87.6538 84.185 89.3812L95.6192 97.5975C98.0231 99.3249 101.371 98.7783 103.097 96.3765C104.823 93.9748 104.273 90.6275 101.869 88.9L90.4348 80.6838Z" fill="#36A852" stroke="#111111" stroke-width="1.00634" stroke-miterlimit="10"/>
</g>
<defs>
<clipPath id="clip0_3742_2657">
<rect width="216" height="172.42" fill="white"/>
</clipPath>
</defs>
</svg>
