<svg width="226" height="208" viewBox="0 0 226 208" fill="none" xmlns="http://www.w3.org/2000/svg">
<path d="M113.2 205.4C174.062 205.4 223.4 160.136 223.4 104.3C223.4 48.4642 174.062 3.2002 113.2 3.2002C52.3382 3.2002 3 48.4642 3 104.3C3 160.136 52.3382 205.4 113.2 205.4Z" stroke="#1E1E1E" stroke-width="5" stroke-miterlimit="10" stroke-linejoin="round"/>
<path d="M113.2 205.4C139.489 205.4 160.8 160.136 160.8 104.3C160.8 48.4642 139.489 3.2002 113.2 3.2002C86.9113 3.2002 65.6001 48.4642 65.6001 104.3C65.6001 160.136 86.9113 205.4 113.2 205.4Z" stroke="#1E1E1E" stroke-width="5" stroke-miterlimit="10" stroke-linejoin="round"/>
<path d="M10.7 66.8003H215.7" stroke="#1E1E1E" stroke-width="5" stroke-miterlimit="10" stroke-linejoin="round"/>
<path d="M10.7 141.6H215.7" stroke="#1E1E1E" stroke-width="5" stroke-miterlimit="10" stroke-linejoin="round"/>
</svg>
