<svg width="1080" height="1015" viewBox="0 0 1080 1015" fill="none" xmlns="http://www.w3.org/2000/svg">
<path d="M1041.67 325.917H730.75V38.3333C730.75 25.5 720.25 15 707.417 15H372.584C359.75 15 349.25 25.5 349.25 38.3333V325.917H38.3333C25.5 325.917 15 336.417 15 349.25V671.25C15 684.083 25.5 694.583 38.3333 694.583H349.25V976.333C349.25 989.167 359.75 999.667 372.584 999.667H707.417C720.25 999.667 730.75 989.167 730.75 976.333V694.583H1041.67C1054.5 694.583 1065 684.083 1065 671.25V349.25C1065 336.417 1054.5 325.917 1041.67 325.917Z" fill="#CCF6C5" stroke="#1E1E1E" stroke-width="30" stroke-miterlimit="10" stroke-linejoin="round"/>
</svg>
