<svg width="5456" height="1087" viewBox="0 0 5456 1087" fill="none" xmlns="http://www.w3.org/2000/svg">
<path d="M3480.05 134.143C3324.63 130.51 3188.18 212.058 3114.7 334.783C3108.25 345.279 3092.9 345.683 3086.85 335.187C3014.99 214.884 2882.98 134.143 2731.59 134.143C2580.2 134.143 2448.19 214.884 2376.33 335.187C2369.87 345.683 2354.53 345.279 2348.48 334.783C2275.01 211.654 2138.55 130.106 1983.13 134.143C1767.55 139.392 1583.87 323.883 1581.04 537.845C1577.81 767.148 1763.51 953.658 1993.62 953.658C2144.61 953.658 2277.02 872.918 2348.88 752.615C2354.94 742.118 2370.28 742.118 2376.74 752.615C2448.6 872.918 2580.61 953.658 2732 953.658C2882.98 953.658 3015.39 872.918 3087.25 752.615C3093.31 742.118 3108.65 742.118 3115.11 752.615C3186.97 872.918 3318.98 953.658 3470.37 953.658C3700.07 953.658 3886.18 767.148 3882.95 537.845C3878.91 323.883 3695.63 139.392 3480.05 134.143Z" fill="#C3ECF6" stroke="#1E1E1E" stroke-width="30" stroke-miterlimit="10"/>
<path d="M5417.67 361.917H5106.75V74.3333C5106.75 61.5 5096.25 51 5083.42 51H4748.58C4735.75 51 4725.25 61.5 4725.25 74.3333V361.917H4414.33C4401.5 361.917 4391 372.417 4391 385.25V707.25C4391 720.083 4401.5 730.583 4414.33 730.583H4725.25V1012.33C4725.25 1025.17 4735.75 1035.67 4748.58 1035.67H5083.42C5096.25 1035.67 5106.75 1025.17 5106.75 1012.33V730.583H5417.67C5430.5 730.583 5441 720.083 5441 707.25V385.25C5441 372.417 5430.5 361.917 5417.67 361.917Z" fill="#CCF6C5" stroke="#1E1E1E" stroke-width="30" stroke-miterlimit="10" stroke-linejoin="round"/>
<path d="M1065.99 209.429L877.571 21.0133C869.553 12.9956 856.636 12.9956 848.618 21.0133L543.5 326.131L238.382 21.0133C230.364 12.9956 217.447 12.9956 209.429 21.0133L21.0133 209.429C12.9956 217.447 12.9956 230.364 21.0133 238.382L326.131 543.5L21.0133 848.618C12.9956 856.636 12.9956 869.553 21.0133 877.571L209.429 1065.99C217.447 1074 230.364 1074 238.382 1065.99L543.5 760.869L848.618 1065.99C856.636 1074 869.553 1074 877.571 1065.99L1065.99 877.571C1074 869.553 1074 856.636 1065.99 848.618L760.869 543.5L1065.99 238.382C1074 230.364 1074 217.447 1065.99 209.429Z" fill="#FFE7A5" stroke="#1E1E1E" stroke-width="30" stroke-miterlimit="10"/>
</svg>
