<svg width="1087" height="1087" viewBox="0 0 1087 1087" fill="none" xmlns="http://www.w3.org/2000/svg">
<path d="M1065.99 209.429L877.571 21.0133C869.553 12.9956 856.636 12.9956 848.618 21.0133L543.5 326.131L238.382 21.0133C230.364 12.9956 217.447 12.9956 209.429 21.0133L21.0133 209.429C12.9956 217.447 12.9956 230.364 21.0133 238.382L326.131 543.5L21.0133 848.618C12.9956 856.636 12.9956 869.553 21.0133 877.571L209.429 1065.99C217.447 1074 230.364 1074 238.382 1065.99L543.5 760.869L848.618 1065.99C856.636 1074 869.553 1074 877.571 1065.99L1065.99 877.571C1074 869.553 1074 856.636 1065.99 848.618L760.869 543.5L1065.99 238.382C1074 230.364 1074 217.447 1065.99 209.429Z" fill="#FFE7A5" stroke="#1E1E1E" stroke-width="30" stroke-miterlimit="10"/>
</svg>
