<svg width="111" height="20" viewBox="0 0 111 20" fill="none" xmlns="http://www.w3.org/2000/svg">
<path d="M0.727539 19V1.12003H6.55954C8.44754 1.12003 10.0875 1.50403 11.4795 2.27203C12.8875 3.02403 13.9755 4.07203 14.7435 5.41603C15.5115 6.74403 15.8955 8.28803 15.8955 10.048C15.8955 11.792 15.5115 13.344 14.7435 14.704C13.9755 16.048 12.8875 17.104 11.4795 17.872C10.0875 18.624 8.44754 19 6.55954 19H0.727539ZM3.99154 16.12H6.63154C7.84754 16.12 8.89554 15.872 9.77554 15.376C10.6715 14.864 11.3675 14.16 11.8635 13.264C12.3595 12.352 12.6075 11.28 12.6075 10.048C12.6075 8.80003 12.3595 7.72803 11.8635 6.83203C11.3675 5.93603 10.6715 5.24003 9.77554 4.74403C8.89554 4.24803 7.84754 4.00003 6.63154 4.00003H3.99154V16.12Z" fill="black"/>
<path d="M19.4532 19V1.12003H31.3332V4.00003H22.7172V8.58403H30.8532V11.464H22.7172V16.12H31.3332V19H19.4532Z" fill="black"/>
<path d="M39.4626 19L33.2226 1.12003H36.7746L41.6706 15.928H40.9746L45.8706 1.12003H49.4226L43.2066 19H39.4626Z" fill="black"/>
<path d="M52.381 19V1.12003H64.309V4.00003H55.645V8.94403H63.229V11.824H55.645V19H52.381Z" fill="black"/>
<path d="M67.4035 19V1.12003H79.2835V4.00003H70.6675V8.58403H78.8035V11.464H70.6675V16.12H79.2835V19H67.4035Z" fill="black"/>
<path d="M89.0209 19.288C87.8849 19.288 86.8289 19.08 85.8529 18.664C84.8929 18.248 84.0609 17.672 83.3569 16.936C82.6689 16.184 82.1649 15.312 81.8449 14.32L84.5569 13.144C84.9889 14.168 85.6129 14.976 86.4289 15.568C87.2449 16.144 88.1649 16.432 89.1889 16.432C89.7649 16.432 90.2609 16.344 90.6769 16.168C91.1089 15.976 91.4369 15.72 91.6609 15.4C91.9009 15.08 92.0209 14.696 92.0209 14.248C92.0209 13.72 91.8609 13.288 91.5409 12.952C91.2369 12.6 90.7729 12.328 90.1489 12.136L86.7169 11.032C85.3249 10.6 84.2769 9.95203 83.5729 9.08803C82.8689 8.22403 82.5169 7.20803 82.5169 6.04003C82.5169 5.01603 82.7649 4.11203 83.2609 3.32803C83.7729 2.54403 84.4769 1.93603 85.3729 1.50403C86.2849 1.05603 87.3249 0.832031 88.4929 0.832031C89.5649 0.832031 90.5489 1.02403 91.4449 1.40803C92.3409 1.77603 93.1089 2.29603 93.7489 2.96803C94.4049 3.62403 94.8929 4.40003 95.2129 5.29603L92.5249 6.49603C92.1729 5.60003 91.6449 4.91203 90.9409 4.43203C90.2369 3.93603 89.4209 3.68803 88.4929 3.68803C87.9489 3.68803 87.4689 3.78403 87.0529 3.97603C86.6369 4.15203 86.3089 4.40803 86.0689 4.74403C85.8449 5.06403 85.7329 5.44803 85.7329 5.89603C85.7329 6.39203 85.8929 6.83203 86.2129 7.21603C86.5329 7.58403 87.0209 7.87203 87.6769 8.08003L90.9649 9.11203C92.3889 9.57603 93.4529 10.216 94.1569 11.032C94.8769 11.848 95.2369 12.856 95.2369 14.056C95.2369 15.08 94.9729 15.984 94.4449 16.768C93.9169 17.552 93.1889 18.168 92.2609 18.616C91.3329 19.064 90.2529 19.288 89.0209 19.288Z" fill="black"/>
<path d="M102.304 19V4.00003H97.672V1.12003H110.152V4.00003H105.592V19H102.304Z" fill="black"/>
</svg>
