<svg width="232" height="135" viewBox="0 0 232 135" fill="none" xmlns="http://www.w3.org/2000/svg">
<path d="M67.7942 13.5991L18.6687 48.8994C8.35822 56.3082 6.00603 70.6725 13.4148 80.9829L13.4266 80.9992C20.8353 91.3097 35.1996 93.6619 45.51 86.2531L94.6356 50.9528C104.946 43.544 107.298 29.1798 99.8894 18.8694L99.8777 18.8531C92.4689 8.54263 78.1047 6.19031 67.7942 13.5991Z" fill="#EA4335" stroke="black" stroke-width="4" stroke-miterlimit="10"/>
<path d="M13.4266 53.9729L13.4148 53.9893C6.00603 64.2997 8.35822 78.664 18.6687 86.0727L67.7942 121.373C78.1046 128.782 92.4689 126.43 99.8777 116.119L99.8894 116.103C107.298 105.792 104.946 91.4282 94.6355 84.0194L45.51 48.7191C35.1995 41.3103 20.8353 43.6625 13.4266 53.9729Z" fill="#4285F4" stroke="black" stroke-width="4" stroke-miterlimit="10"/>
<path d="M186.49 48.9364L137.365 84.2367C127.054 91.6455 124.702 106.01 132.111 116.32L132.122 116.336C139.531 126.647 153.895 128.999 164.206 121.59L213.331 86.29C223.642 78.8812 225.994 64.517 218.585 54.2065L218.574 54.1902C211.165 43.8798 196.8 41.5276 186.49 48.9364Z" fill="#F9AB00" stroke="black" stroke-width="4" stroke-miterlimit="10"/>
<path d="M132.115 18.6686L132.103 18.6849C124.694 28.9954 127.046 43.3597 137.357 50.7685L186.482 86.0687C196.793 93.4775 211.157 91.1253 218.566 80.8148L218.577 80.7985C225.986 70.4881 223.634 56.1239 213.324 48.7151L164.198 13.4148C153.888 6.00604 139.523 8.35819 132.115 18.6686Z" fill="#34A853" stroke="black" stroke-width="4" stroke-miterlimit="10"/>
</svg>
