<svg width="220" height="47" viewBox="0 0 220 47" fill="none" xmlns="http://www.w3.org/2000/svg">
<path d="M0.728 19V1.12H6.56C8.448 1.12 10.088 1.504 11.48 2.272C12.888 3.024 13.976 4.072 14.744 5.416C15.512 6.744 15.896 8.288 15.896 10.048C15.896 11.792 15.512 13.344 14.744 14.704C13.976 16.048 12.888 17.104 11.48 17.872C10.088 18.624 8.448 19 6.56 19H0.728ZM3.992 16.12H6.632C7.848 16.12 8.896 15.872 9.776 15.376C10.672 14.864 11.368 14.16 11.864 13.264C12.36 12.352 12.608 11.28 12.608 10.048C12.608 8.8 12.36 7.728 11.864 6.832C11.368 5.936 10.672 5.24 9.776 4.744C8.896 4.248 7.848 4 6.632 4H3.992V16.12ZM23.9416 19.288C22.5976 19.288 21.4216 18.984 20.4136 18.376C19.4056 17.768 18.6216 16.944 18.0616 15.904C17.5016 14.864 17.2216 13.712 17.2216 12.448C17.2216 11.136 17.5016 9.976 18.0616 8.968C18.6376 7.944 19.4136 7.136 20.3896 6.544C21.3816 5.952 22.4856 5.656 23.7016 5.656C24.7256 5.656 25.6216 5.824 26.3896 6.16C27.1736 6.496 27.8376 6.96 28.3816 7.552C28.9256 8.144 29.3416 8.824 29.6296 9.592C29.9176 10.344 30.0616 11.16 30.0616 12.04C30.0616 12.264 30.0456 12.496 30.0136 12.736C29.9976 12.976 29.9576 13.184 29.8936 13.36H19.8136V10.96H28.1176L26.6296 12.088C26.7736 11.352 26.7336 10.696 26.5096 10.12C26.3016 9.544 25.9496 9.088 25.4536 8.752C24.9736 8.416 24.3896 8.248 23.7016 8.248C23.0456 8.248 22.4616 8.416 21.9496 8.752C21.4376 9.072 21.0456 9.552 20.7736 10.192C20.5176 10.816 20.4216 11.576 20.4856 12.472C20.4216 13.272 20.5256 13.984 20.7976 14.608C21.0856 15.216 21.5016 15.688 22.0456 16.024C22.6056 16.36 23.2456 16.528 23.9656 16.528C24.6856 16.528 25.2936 16.376 25.7896 16.072C26.3016 15.768 26.7016 15.36 26.9896 14.848L29.5336 16.096C29.2776 16.72 28.8776 17.272 28.3336 17.752C27.7896 18.232 27.1416 18.608 26.3896 18.88C25.6536 19.152 24.8376 19.288 23.9416 19.288ZM35.6666 19L30.5306 5.944H33.9626L37.6826 16.216H36.4106L40.1546 5.944H43.5866L38.4506 19H35.6666ZM45.1083 19V1.12H57.0363V4H48.3723V8.944H55.9563V11.824H48.3723V19H45.1083ZM64.3376 19.288C62.9936 19.288 61.8176 18.984 60.8096 18.376C59.8016 17.768 59.0176 16.944 58.4576 15.904C57.8976 14.864 57.6176 13.712 57.6176 12.448C57.6176 11.136 57.8976 9.976 58.4576 8.968C59.0336 7.944 59.8096 7.136 60.7856 6.544C61.7776 5.952 62.8816 5.656 64.0976 5.656C65.1216 5.656 66.0176 5.824 66.7856 6.16C67.5696 6.496 68.2336 6.96 68.7776 7.552C69.3216 8.144 69.7376 8.824 70.0256 9.592C70.3136 10.344 70.4576 11.16 70.4576 12.04C70.4576 12.264 70.4416 12.496 70.4096 12.736C70.3936 12.976 70.3536 13.184 70.2896 13.36H60.2096V10.96H68.5136L67.0256 12.088C67.1696 11.352 67.1296 10.696 66.9056 10.12C66.6976 9.544 66.3456 9.088 65.8496 8.752C65.3696 8.416 64.7856 8.248 64.0976 8.248C63.4416 8.248 62.8576 8.416 62.3456 8.752C61.8336 9.072 61.4416 9.552 61.1696 10.192C60.9136 10.816 60.8176 11.576 60.8816 12.472C60.8176 13.272 60.9216 13.984 61.1936 14.608C61.4816 15.216 61.8976 15.688 62.4416 16.024C63.0016 16.36 63.6416 16.528 64.3616 16.528C65.0816 16.528 65.6896 16.376 66.1856 16.072C66.6976 15.768 67.0976 15.36 67.3856 14.848L69.9296 16.096C69.6736 16.72 69.2736 17.272 68.7296 17.752C68.1856 18.232 67.5376 18.608 66.7856 18.88C66.0496 19.152 65.2336 19.288 64.3376 19.288ZM77.3289 19.288C75.9369 19.288 74.7209 18.96 73.6809 18.304C72.6569 17.632 71.9529 16.728 71.5689 15.592L73.9209 14.464C74.2569 15.2 74.7209 15.776 75.3129 16.192C75.9209 16.608 76.5929 16.816 77.3289 16.816C77.9049 16.816 78.3609 16.688 78.6969 16.432C79.0329 16.176 79.2009 15.84 79.2009 15.424C79.2009 15.168 79.1289 14.96 78.9849 14.8C78.8569 14.624 78.6729 14.48 78.4329 14.368C78.2089 14.24 77.9609 14.136 77.6889 14.056L75.5529 13.456C74.4489 13.136 73.6089 12.648 73.0329 11.992C72.4729 11.336 72.1929 10.56 72.1929 9.664C72.1929 8.864 72.3929 8.168 72.7929 7.576C73.2089 6.968 73.7769 6.496 74.4969 6.16C75.2329 5.824 76.0729 5.656 77.0169 5.656C78.2489 5.656 79.3369 5.952 80.2809 6.544C81.2249 7.136 81.8969 7.968 82.2969 9.04L79.8969 10.168C79.6729 9.576 79.2969 9.104 78.7689 8.752C78.2409 8.4 77.6489 8.224 76.9929 8.224C76.4649 8.224 76.0489 8.344 75.7449 8.584C75.4409 8.824 75.2889 9.136 75.2889 9.52C75.2889 9.76 75.3529 9.968 75.4809 10.144C75.6089 10.32 75.7849 10.464 76.0089 10.576C76.2489 10.688 76.5209 10.792 76.8249 10.888L78.9129 11.512C79.9849 11.832 80.8089 12.312 81.3849 12.952C81.9769 13.592 82.2729 14.376 82.2729 15.304C82.2729 16.088 82.0649 16.784 81.6489 17.392C81.2329 17.984 80.6569 18.448 79.9209 18.784C79.1849 19.12 78.3209 19.288 77.3289 19.288ZM90.161 19.144C88.689 19.144 87.545 18.744 86.729 17.944C85.929 17.128 85.529 15.984 85.529 14.512V8.752H83.273V5.944H83.513C84.153 5.944 84.649 5.776 85.001 5.44C85.353 5.104 85.529 4.616 85.529 3.976V2.968H88.673V5.944H91.673V8.752H88.673V14.344C88.673 14.776 88.745 15.144 88.889 15.448C89.049 15.752 89.289 15.984 89.609 16.144C89.945 16.304 90.369 16.384 90.881 16.384C90.993 16.384 91.121 16.376 91.265 16.36C91.425 16.344 91.577 16.328 91.721 16.312V19C91.497 19.032 91.241 19.064 90.953 19.096C90.665 19.128 90.401 19.144 90.161 19.144ZM93.2831 19V16.528L98.1311 11.464C99.0911 10.456 99.8271 9.656 100.339 9.064C100.867 8.456 101.235 7.936 101.443 7.504C101.651 7.072 101.755 6.632 101.755 6.184C101.755 5.432 101.515 4.84 101.035 4.408C100.571 3.976 99.9711 3.76 99.2351 3.76C98.4671 3.76 97.8031 3.984 97.2431 4.432C96.6831 4.864 96.2751 5.504 96.0191 6.352L93.1631 5.464C93.3551 4.52 93.7471 3.704 94.3391 3.016C94.9311 2.312 95.6511 1.776 96.4991 1.408C97.3631 1.024 98.2751 0.831999 99.2351 0.831999C100.387 0.831999 101.395 1.04 102.259 1.456C103.139 1.872 103.819 2.456 104.299 3.208C104.795 3.96 105.043 4.84 105.043 5.848C105.043 6.488 104.923 7.12 104.683 7.744C104.443 8.368 104.083 9.008 103.603 9.664C103.123 10.304 102.499 11.024 101.731 11.824L97.5311 16.24H105.283V19H93.2831ZM113.147 19.288C112.203 19.288 111.299 19.112 110.435 18.76C109.587 18.408 108.851 17.912 108.227 17.272C107.619 16.616 107.203 15.84 106.979 14.944L109.811 13.936C110.083 14.752 110.523 15.36 111.131 15.76C111.739 16.144 112.411 16.336 113.147 16.336C113.755 16.336 114.291 16.208 114.755 15.952C115.235 15.68 115.603 15.312 115.859 14.848C116.115 14.368 116.243 13.816 116.243 13.192C116.243 12.568 116.107 12.024 115.835 11.56C115.579 11.096 115.219 10.736 114.755 10.48C114.291 10.208 113.755 10.072 113.147 10.072C112.523 10.072 111.955 10.208 111.443 10.48C110.947 10.752 110.587 11.144 110.363 11.656L107.699 11.056L109.115 1.12H118.859V3.88H110.411L111.635 2.464L110.627 9.952L109.691 9.184C110.139 8.528 110.683 8.048 111.323 7.744C111.979 7.44 112.771 7.288 113.699 7.288C114.883 7.288 115.907 7.544 116.771 8.056C117.651 8.568 118.331 9.264 118.811 10.144C119.291 11.024 119.531 12.04 119.531 13.192C119.531 14.344 119.251 15.384 118.691 16.312C118.131 17.24 117.371 17.968 116.411 18.496C115.451 19.024 114.363 19.288 113.147 19.288ZM130.817 19.2344C128.989 19.2344 127.579 18.7266 126.587 17.7109C125.595 16.6875 125.098 15.2578 125.098 13.4219H127.442C127.442 14.5938 127.739 15.5039 128.333 16.1523C128.934 16.8008 129.782 17.125 130.876 17.125C131.938 17.125 132.755 16.8047 133.325 16.1641C133.903 15.5156 134.192 14.6016 134.192 13.4219V2.35938H136.536V13.4219C136.536 15.2656 136.032 16.6953 135.024 17.7109C134.016 18.7266 132.614 19.2344 130.817 19.2344ZM129.833 4.58594V2.35938H135.294V4.58594H129.833ZM147.259 19.1172L147.095 15.4375L146.767 14.4062V11.1953C146.767 10.3672 146.474 9.76172 145.888 9.37891C145.31 8.98828 144.447 8.77734 143.298 8.74609L140.322 8.66406L140.556 6.46094L143.064 6.49609C145.118 6.52734 146.642 6.97266 147.634 7.83203C148.634 8.68359 149.134 9.92969 149.134 11.5703V16.75L151.243 17.0078V19L147.259 19.1172ZM142.876 19.2344C141.579 19.2344 140.575 18.9219 139.865 18.2969C139.154 17.6719 138.798 16.7891 138.798 15.6484C138.798 14.3359 139.286 13.3281 140.263 12.625C141.247 11.9219 142.634 11.5703 144.423 11.5703C145.165 11.5703 145.825 11.6172 146.404 11.7109C146.99 11.7969 147.509 11.9297 147.962 12.1094L147.447 13.7969C146.923 13.6797 146.411 13.6133 145.911 13.5977C145.411 13.5742 144.9 13.5625 144.376 13.5625C142.22 13.5625 141.142 14.2188 141.142 15.5312C141.142 16.0781 141.325 16.5 141.693 16.7969C142.068 17.0938 142.595 17.2422 143.275 17.2422C144.048 17.2422 144.693 17.1094 145.208 16.8438C145.732 16.5781 146.122 16.2383 146.38 15.8242C146.638 15.4102 146.767 14.9844 146.767 14.5469V13.1875L147.493 16.375H146.509L146.908 16C146.908 16.7188 146.74 17.3203 146.404 17.8047C146.075 18.2812 145.611 18.6406 145.009 18.8828C144.408 19.1172 143.697 19.2344 142.876 19.2344ZM154.888 14.2891V12.0625H156.295C157.326 12.0625 158.174 11.8867 158.838 11.5352C159.502 11.1758 160.021 10.5938 160.396 9.78906C160.779 8.98438 161.06 7.91406 161.24 6.57812H163.818C163.49 9.16406 162.752 11.0977 161.603 12.3789C160.463 13.6523 158.888 14.2891 156.881 14.2891H154.888ZM153.131 19V1.42188H155.615V19H153.131ZM161.545 19L158.006 12.9531L160.349 11.9922L164.615 19H161.545ZM174.424 19.1172L174.26 15.4375L173.932 14.4062V11.1953C173.932 10.3672 173.639 9.76172 173.053 9.37891C172.475 8.98828 171.612 8.77734 170.463 8.74609L167.487 8.66406L167.721 6.46094L170.229 6.49609C172.283 6.52734 173.807 6.97266 174.799 7.83203C175.799 8.68359 176.299 9.92969 176.299 11.5703V16.75L178.408 17.0078V19L174.424 19.1172ZM170.041 19.2344C168.744 19.2344 167.74 18.9219 167.03 18.2969C166.319 17.6719 165.963 16.7891 165.963 15.6484C165.963 14.3359 166.451 13.3281 167.428 12.625C168.412 11.9219 169.799 11.5703 171.588 11.5703C172.33 11.5703 172.99 11.6172 173.569 11.7109C174.155 11.7969 174.674 11.9297 175.127 12.1094L174.612 13.7969C174.088 13.6797 173.576 13.6133 173.076 13.5977C172.576 13.5742 172.065 13.5625 171.541 13.5625C169.385 13.5625 168.307 14.2188 168.307 15.5312C168.307 16.0781 168.49 16.5 168.858 16.7969C169.233 17.0938 169.76 17.2422 170.44 17.2422C171.213 17.2422 171.858 17.1094 172.373 16.8438C172.897 16.5781 173.287 16.2383 173.545 15.8242C173.803 15.4102 173.932 14.9844 173.932 14.5469V13.1875L174.658 16.375H173.674L174.072 16C174.072 16.7188 173.905 17.3203 173.569 17.8047C173.24 18.2812 172.776 18.6406 172.174 18.8828C171.572 19.1172 170.862 19.2344 170.041 19.2344ZM184.608 13.6562L183.882 9.76562H184.842C184.983 7.48438 186.124 6.34375 188.264 6.34375C189.546 6.34375 190.475 6.71094 191.053 7.44531C191.632 8.17969 191.921 9.36719 191.921 11.0078H189.46C189.46 10.1016 189.323 9.44922 189.05 9.05078C188.784 8.65234 188.35 8.45312 187.749 8.45312C186.694 8.45312 185.905 8.90625 185.382 9.8125C184.866 10.7109 184.608 11.9922 184.608 13.6562ZM179.358 19V16.9609H187.655V19H179.358ZM182.124 19V6.57812H184.139L184.608 10.1406V19H182.124ZM179.827 8.61719V6.57812H183.975L184.21 8.61719H179.827ZM201.284 19.2344C199.402 19.2344 198.038 18.8438 197.195 18.0625C196.359 17.2812 195.941 16.0312 195.941 14.3125V12.2031H198.425V14.1953C198.425 15.1797 198.663 15.8945 199.14 16.3398C199.624 16.7852 200.417 17.0078 201.519 17.0078C201.909 17.0078 202.323 16.9883 202.761 16.9492C203.198 16.9023 203.698 16.8438 204.261 16.7734L204.542 18.9531C203.995 19.0469 203.46 19.1172 202.937 19.1641C202.421 19.2109 201.87 19.2344 201.284 19.2344ZM195.941 13.1406V2.82812H198.425V13.1406H195.941ZM192.823 8.61719V6.57812H204.073V8.61719H192.823ZM215.172 19.1172L215.008 15.4375L214.679 14.4062V11.1953C214.679 10.3672 214.386 9.76172 213.8 9.37891C213.222 8.98828 212.359 8.77734 211.211 8.74609L208.234 8.66406L208.468 6.46094L210.976 6.49609C213.031 6.52734 214.554 6.97266 215.547 7.83203C216.547 8.68359 217.047 9.92969 217.047 11.5703V16.75L219.156 17.0078V19L215.172 19.1172ZM210.789 19.2344C209.492 19.2344 208.488 18.9219 207.777 18.2969C207.066 17.6719 206.711 16.7891 206.711 15.6484C206.711 14.3359 207.199 13.3281 208.175 12.625C209.16 11.9219 210.547 11.5703 212.336 11.5703C213.078 11.5703 213.738 11.6172 214.316 11.7109C214.902 11.7969 215.422 11.9297 215.875 12.1094L215.359 13.7969C214.836 13.6797 214.324 13.6133 213.824 13.5977C213.324 13.5742 212.812 13.5625 212.289 13.5625C210.133 13.5625 209.054 14.2188 209.054 15.5312C209.054 16.0781 209.238 16.5 209.605 16.7969C209.98 17.0938 210.508 17.2422 211.187 17.2422C211.961 17.2422 212.605 17.1094 213.121 16.8438C213.644 16.5781 214.035 16.2383 214.293 15.8242C214.55 15.4102 214.679 14.9844 214.679 14.5469V13.1875L215.406 16.375H214.422L214.82 16C214.82 16.7188 214.652 17.3203 214.316 17.8047C213.988 18.2812 213.523 18.6406 212.922 18.8828C212.32 19.1172 211.609 19.2344 210.789 19.2344ZM3.14062 43V31.9062H4.70312V43H3.14062ZM0.328125 43V41.5156H3.29688V43H0.328125ZM4.54688 43V41.5156H7.21875V43H4.54688ZM0.484375 34.4219V32.8438L3.14062 31.9062V33.5156L0.484375 34.4219ZM12.8519 43.1562C11.654 43.1562 10.7269 42.8724 10.0706 42.3047C9.41438 41.7318 9.08625 40.9271 9.08625 39.8906H10.7581C10.7581 40.4688 10.9404 40.9193 11.305 41.2422C11.6696 41.5599 12.1904 41.7188 12.8675 41.7188C13.5342 41.7188 14.0498 41.5182 14.4144 41.1172C14.779 40.7161 14.9613 40.151 14.9613 39.4219C14.9613 38.7083 14.7633 38.1562 14.3675 37.7656C13.9717 37.3698 13.4092 37.1719 12.68 37.1719C11.9508 37.1719 11.2685 37.3438 10.6331 37.6875L10.7738 36.3594C11.1852 36.125 11.5941 35.9688 12.0003 35.8906C12.4066 35.8073 12.8154 35.7656 13.2269 35.7656C14.2998 35.7656 15.1305 36.0833 15.7191 36.7188C16.3076 37.3542 16.6019 38.2552 16.6019 39.4219C16.6019 40.2135 16.4534 40.888 16.1566 41.4453C15.8649 42.0026 15.4404 42.4271 14.8831 42.7188C14.3258 43.0104 13.6488 43.1562 12.8519 43.1562ZM9.75813 37.6875L9.91438 31.9062H11.5238L11.3675 36.7188L10.6331 37.6875H9.75813ZM10.6644 33.3594L10.5238 31.9062H15.8988V33.3594H10.6644ZM26.7509 46.75L26.6728 45.2656L27.9697 45.1094C28.5166 45.0417 28.9827 44.8932 29.3681 44.6641C29.7588 44.4349 30.0921 44.0938 30.3681 43.6406C30.6442 43.1927 30.8864 42.6042 31.0947 41.875L33.1572 34.7188H34.8759L32.4853 42.2656C32.1728 43.2552 31.8213 44.0521 31.4306 44.6562C31.0452 45.2604 30.5869 45.7135 30.0556 46.0156C29.5296 46.3177 28.8968 46.5104 28.1572 46.5938L26.7509 46.75ZM29.8916 43L26.5947 34.7188H28.3134L31.0166 41.75H31.2666V43H29.8916ZM40.7044 43.1562C39.2929 43.1562 38.2018 42.7865 37.4309 42.0469C36.6653 41.3021 36.2825 40.2344 36.2825 38.8438C36.2825 37.4896 36.608 36.4375 37.2591 35.6875C37.9101 34.9375 38.8294 34.5625 40.0169 34.5625C41.1367 34.5625 42.0013 34.901 42.6106 35.5781C43.2252 36.2552 43.5325 37.2396 43.5325 38.5312C43.5325 38.9115 43.5169 39.2656 43.4856 39.5938H37.6731V38.3281H42.0325C42.0325 37.5833 41.8554 37.013 41.5013 36.6172C41.1471 36.2161 40.6575 36.0156 40.0325 36.0156C39.3294 36.0156 38.7825 36.2552 38.3919 36.7344C38.0065 37.2135 37.8138 37.8906 37.8138 38.7656C37.8138 39.724 38.0794 40.4531 38.6106 40.9531C39.1471 41.4531 39.9075 41.7031 40.8919 41.7031C41.2356 41.7031 41.5742 41.6849 41.9075 41.6484C42.2408 41.6068 42.5794 41.5521 42.9231 41.4844L43.1263 42.9375C42.6367 43.0312 42.1888 43.0911 41.7825 43.1172C41.3763 43.1432 41.0169 43.1562 40.7044 43.1562ZM50.6656 43.0781L50.5563 40.625L50.3375 39.9375V37.7969C50.3375 37.2448 50.1422 36.8411 49.7516 36.5859C49.3661 36.3255 48.7906 36.1849 48.025 36.1641L46.0406 36.1094L46.1969 34.6406L47.8688 34.6641C49.2385 34.6849 50.2542 34.9818 50.9156 35.5547C51.5823 36.1224 51.9156 36.9531 51.9156 38.0469V41.5L53.3219 41.6719V43L50.6656 43.0781ZM47.7438 43.1562C46.8792 43.1562 46.2099 42.9479 45.7359 42.5312C45.262 42.1146 45.025 41.526 45.025 40.7656C45.025 39.8906 45.3505 39.2188 46.0016 38.75C46.6578 38.2812 47.5823 38.0469 48.775 38.0469C49.2698 38.0469 49.7099 38.0781 50.0953 38.1406C50.4859 38.1979 50.8323 38.2865 51.1344 38.4062L50.7906 39.5312C50.4417 39.4531 50.1005 39.4089 49.7672 39.3984C49.4339 39.3828 49.0927 39.375 48.7438 39.375C47.3063 39.375 46.5875 39.8125 46.5875 40.6875C46.5875 41.0521 46.7099 41.3333 46.9547 41.5312C47.2047 41.7292 47.5563 41.8281 48.0094 41.8281C48.525 41.8281 48.9547 41.7396 49.2984 41.5625C49.6474 41.3854 49.9078 41.1589 50.0797 40.8828C50.2516 40.6068 50.3375 40.3229 50.3375 40.0312V39.125L50.8219 41.25H50.1656L50.4313 41C50.4313 41.4792 50.3193 41.8802 50.0953 42.2031C49.8766 42.5208 49.5667 42.7604 49.1656 42.9219C48.7646 43.0781 48.2906 43.1562 47.7438 43.1562ZM57.455 39.4375L56.9706 36.8438H57.6113C57.705 35.3229 58.4654 34.5625 59.8925 34.5625C60.7467 34.5625 61.3665 34.8073 61.7519 35.2969C62.1373 35.7865 62.33 36.5781 62.33 37.6719H60.6894C60.6894 37.0677 60.5982 36.6328 60.4159 36.3672C60.2389 36.1016 59.9498 35.9688 59.5488 35.9688C58.8456 35.9688 58.3196 36.2708 57.9706 36.875C57.6269 37.474 57.455 38.3281 57.455 39.4375ZM53.955 43V41.6406H59.4863V43H53.955ZM55.7988 43V34.7188H57.1425L57.455 37.0938V43H55.7988ZM54.2675 36.0781V34.7188H57.0331L57.1894 36.0781H54.2675ZM66.4319 43.1562C65.8069 43.1562 65.2704 43.138 64.8225 43.1016C64.3798 43.0651 63.9735 43.0052 63.6037 42.9219L63.7912 41.4219C64.3381 41.5052 64.8199 41.5677 65.2366 41.6094C65.6584 41.651 66.0569 41.6719 66.4319 41.6719C67.2704 41.6719 67.8772 41.5911 68.2522 41.4297C68.6324 41.263 68.8225 41 68.8225 40.6406C68.8225 40.3906 68.7548 40.2057 68.6194 40.0859C68.4892 39.9609 68.286 39.8646 68.01 39.7969L66.1037 39.3125C65.286 39.1042 64.6845 38.8464 64.2991 38.5391C63.9189 38.2318 63.7287 37.7656 63.7287 37.1406C63.7287 36.2344 64.0751 35.5781 64.7678 35.1719C65.4657 34.7656 66.5881 34.5625 68.135 34.5625C68.536 34.5625 68.9084 34.5755 69.2522 34.6016C69.6011 34.6224 69.9579 34.6615 70.3225 34.7188L70.1506 36.1562C69.7287 36.1146 69.3564 36.0859 69.0334 36.0703C68.7105 36.0547 68.3954 36.0469 68.0881 36.0469C67.161 36.0469 66.4892 36.1276 66.0725 36.2891C65.6558 36.4453 65.4475 36.7031 65.4475 37.0625C65.4475 37.3021 65.5334 37.4766 65.7053 37.5859C65.8772 37.6901 66.1402 37.7865 66.4944 37.875L68.0256 38.25C68.8954 38.4583 69.5308 38.737 69.9319 39.0859C70.3381 39.4349 70.5412 39.9427 70.5412 40.6094C70.5412 41.5 70.2157 42.1484 69.5647 42.5547C68.9136 42.9557 67.8694 43.1562 66.4319 43.1562ZM85.9794 43.1562C84.5679 43.1562 83.4768 42.7865 82.7059 42.0469C81.9403 41.3021 81.5575 40.2344 81.5575 38.8438C81.5575 37.4896 81.883 36.4375 82.5341 35.6875C83.1851 34.9375 84.1044 34.5625 85.2919 34.5625C86.4117 34.5625 87.2763 34.901 87.8856 35.5781C88.5002 36.2552 88.8075 37.2396 88.8075 38.5312C88.8075 38.9115 88.7919 39.2656 88.7606 39.5938H82.9481V38.3281H87.3075C87.3075 37.5833 87.1304 37.013 86.7763 36.6172C86.4221 36.2161 85.9325 36.0156 85.3075 36.0156C84.6044 36.0156 84.0575 36.2552 83.6669 36.7344C83.2815 37.2135 83.0888 37.8906 83.0888 38.7656C83.0888 39.724 83.3544 40.4531 83.8856 40.9531C84.4221 41.4531 85.1825 41.7031 86.1669 41.7031C86.5106 41.7031 86.8492 41.6849 87.1825 41.6484C87.5158 41.6068 87.8544 41.5521 88.1981 41.4844L88.4013 42.9375C87.9117 43.0312 87.4638 43.0911 87.0575 43.1172C86.6513 43.1432 86.2919 43.1562 85.9794 43.1562ZM93.6047 43.1562C92.5214 43.1562 91.6984 42.7995 91.1359 42.0859C90.5786 41.3724 90.3 40.3229 90.3 38.9375C90.3 37.5 90.5786 36.4115 91.1359 35.6719C91.6984 34.9323 92.5214 34.5625 93.6047 34.5625C94.2245 34.5625 94.7271 34.7083 95.1125 35C95.5031 35.2917 95.7323 35.6979 95.8 36.2188H96.4406L95.9563 38.5781C95.9563 37.724 95.787 37.0755 95.4484 36.6328C95.1151 36.1901 94.6229 35.9688 93.9719 35.9688C93.3052 35.9688 92.8 36.2188 92.4563 36.7188C92.1125 37.2188 91.9406 37.9583 91.9406 38.9375C91.9406 39.8646 92.1125 40.5651 92.4563 41.0391C92.8 41.513 93.3052 41.75 93.9719 41.75C94.6229 41.75 95.1151 41.5286 95.4484 41.0859C95.787 40.6432 95.9563 39.9948 95.9563 39.1406L96.5188 41.5H95.8C95.7479 42.0208 95.5266 42.4271 95.1359 42.7188C94.7505 43.0104 94.2401 43.1562 93.6047 43.1562ZM96.1281 43.0781L95.9563 41.4531V31.2812H97.6125V43L96.1281 43.0781ZM103.011 43V35.1875H104.668V43H103.011ZM99.855 43V41.6406H103.168V43H99.855ZM104.511 43V41.6406H107.214V43H104.511ZM100.324 36.0781V34.7188H104.668V36.0781H100.324ZM103.785 33.4062C103.467 33.4062 103.194 33.2943 102.964 33.0703C102.74 32.8411 102.628 32.5677 102.628 32.25C102.628 31.9271 102.74 31.6536 102.964 31.4297C103.194 31.2057 103.467 31.0938 103.785 31.0938C104.108 31.0938 104.381 31.2057 104.605 31.4297C104.829 31.6536 104.941 31.9271 104.941 32.25C104.941 32.5677 104.829 32.8411 104.605 33.0703C104.381 33.2943 104.108 33.4062 103.785 33.4062ZM113.848 43.1562C112.592 43.1562 111.683 42.8958 111.121 42.375C110.564 41.8542 110.285 41.0208 110.285 39.875V38.4688H111.941V39.7969C111.941 40.4531 112.1 40.9297 112.418 41.2266C112.741 41.5234 113.269 41.6719 114.004 41.6719C114.264 41.6719 114.54 41.6589 114.832 41.6328C115.124 41.6016 115.457 41.5625 115.832 41.5156L116.019 42.9688C115.655 43.0312 115.298 43.0781 114.949 43.1094C114.605 43.1406 114.238 43.1562 113.848 43.1562ZM110.285 39.0938V32.2188H111.941V39.0938H110.285ZM108.207 36.0781V34.7188H115.707V36.0781H108.207ZM121.121 43V35.1875H122.777V43H121.121ZM117.965 43V41.6406H121.277V43H117.965ZM122.621 43V41.6406H125.324V43H122.621ZM118.434 36.0781V34.7188H122.777V36.0781H118.434ZM121.895 33.4062C121.577 33.4062 121.304 33.2943 121.074 33.0703C120.85 32.8411 120.738 32.5677 120.738 32.25C120.738 31.9271 120.85 31.6536 121.074 31.4297C121.304 31.2057 121.577 31.0938 121.895 31.0938C122.218 31.0938 122.491 31.2057 122.715 31.4297C122.939 31.6536 123.051 31.9271 123.051 32.25C123.051 32.5677 122.939 32.8411 122.715 33.0703C122.491 33.2943 122.218 33.4062 121.895 33.4062ZM130.457 43.1562C129.312 43.1562 128.421 42.7812 127.786 42.0312C127.15 41.2812 126.832 40.224 126.832 38.8594C126.832 37.4896 127.15 36.4323 127.786 35.6875C128.421 34.9375 129.312 34.5625 130.457 34.5625C131.609 34.5625 132.499 34.9375 133.129 35.6875C133.765 36.4323 134.082 37.4896 134.082 38.8594C134.082 40.224 133.765 41.2812 133.129 42.0312C132.499 42.7812 131.609 43.1562 130.457 43.1562ZM130.457 41.6719C131.067 41.6719 131.536 41.4271 131.864 40.9375C132.197 40.4479 132.364 39.7552 132.364 38.8594C132.364 37.9583 132.197 37.2656 131.864 36.7812C131.536 36.2917 131.067 36.0469 130.457 36.0469C129.848 36.0469 129.377 36.2917 129.043 36.7812C128.715 37.2656 128.551 37.9583 128.551 38.8594C128.551 39.7552 128.715 40.4479 129.043 40.9375C129.377 41.4271 129.848 41.6719 130.457 41.6719ZM141.231 43V37.6094C141.231 37.1094 141.101 36.724 140.841 36.4531C140.58 36.1823 140.216 36.0469 139.747 36.0469C138.445 36.0469 137.794 36.8125 137.794 38.3438L137.309 36.2188H137.95C137.997 35.6615 138.2 35.2474 138.559 34.9766C138.919 34.7005 139.445 34.5625 140.137 34.5625C141.012 34.5625 141.69 34.8281 142.169 35.3594C142.648 35.8906 142.887 36.6406 142.887 37.6094V43H141.231ZM136.137 43V34.7188H137.637L137.794 36.4688V43H136.137Z" fill="black"/>
</svg>
