<svg width="714" height="205" viewBox="0 0 714 205" fill="none" xmlns="http://www.w3.org/2000/svg">
<g filter="url(#filter0_d_3993_7212)">
<path d="M109.471 2C121.335 2.00011 131.347 9.92154 134.512 20.7637C137.676 9.9212 147.69 2 159.555 2H574.833C586.697 2.00012 596.709 9.92155 599.874 20.7637C603.038 9.9212 613.052 2 624.917 2H672.914C687.32 2.00021 698.999 13.6786 698.999 28.085V70.8652C698.999 83.4867 690.034 94.0139 678.125 96.4287C690.034 98.8434 698.999 109.37 698.999 121.992V164.772C698.999 179.179 687.32 190.857 672.914 190.857H624.917C612.855 190.857 602.707 182.671 599.723 171.551C596.399 182.135 586.514 189.813 574.833 189.813H159.555C147.69 189.813 137.677 181.892 134.513 171.049C131.348 181.891 121.335 189.813 109.471 189.813H61.4736C50.6269 189.813 41.3274 183.193 37.3936 173.772C36.5392 182.773 28.9611 189.813 19.7373 189.813C9.9412 189.813 2.00033 181.872 2 172.076V19.7373C2.00015 9.94108 9.94108 2.00015 19.7373 2C28.9609 2.00024 36.5389 9.0402 37.3936 18.04C41.3275 8.62009 50.6271 2 61.4736 2H109.471Z" fill="white"/>
<path d="M109.471 2L109.471 0.43488H109.471V2ZM134.512 20.7637L133.009 21.2022C133.204 21.8698 133.816 22.3288 134.512 22.3288C135.207 22.3288 135.819 21.8698 136.014 21.2022L134.512 20.7637ZM574.833 2L574.833 0.43488H574.833V2ZM599.874 20.7637L598.372 21.2022C598.566 21.8698 599.179 22.3288 599.874 22.3288C600.57 22.3288 601.182 21.8698 601.376 21.2022L599.874 20.7637ZM672.914 2L672.914 0.43488H672.914V2ZM698.999 70.8652L700.564 70.8653V70.8652H698.999ZM678.125 96.4287L677.814 94.8948C677.084 95.0428 676.56 95.6842 676.56 96.4287C676.56 97.1732 677.084 97.8147 677.814 97.9626L678.125 96.4287ZM698.999 164.772L700.564 164.773V164.772H698.999ZM672.914 190.857L672.914 192.423L672.914 192.423L672.914 190.857ZM599.723 171.551L601.234 171.145C601.054 170.473 600.451 170.001 599.756 169.986C599.06 169.971 598.438 170.418 598.229 171.082L599.723 171.551ZM574.833 189.813L574.833 191.379L574.833 191.379L574.833 189.813ZM134.513 171.049L136.015 170.61C135.82 169.943 135.208 169.484 134.513 169.484C133.817 169.484 133.205 169.943 133.01 170.61L134.513 171.049ZM109.471 189.813L109.471 191.379L109.471 191.379L109.471 189.813ZM37.3936 173.772L38.8378 173.169C38.5611 172.507 37.8689 172.117 37.1589 172.225C36.449 172.333 35.9033 172.91 35.8354 173.625L37.3936 173.772ZM19.7373 189.813L19.7373 191.379L19.7373 191.379L19.7373 189.813ZM2 172.076L0.43488 172.076L0.43488 172.076L2 172.076ZM2 19.7373L0.43488 19.7373V19.7373H2ZM19.7373 2L19.7373 0.43488L19.7373 0.43488L19.7373 2ZM37.3936 18.04L35.8354 18.188C35.9033 18.9029 36.449 19.4798 37.159 19.5875C37.8689 19.6951 38.5611 19.3058 38.8378 18.6432L37.3936 18.04ZM109.471 2L109.471 3.56512C120.621 3.56523 130.034 11.0094 133.009 21.2022L134.512 20.7637L136.014 20.3251C132.66 8.83368 122.05 0.435001 109.471 0.43488L109.471 2ZM134.512 20.7637L136.014 21.2022C138.989 11.0092 148.404 3.56512 159.555 3.56512V2V0.43488C146.976 0.43488 136.363 8.83319 133.009 20.3252L134.512 20.7637ZM159.555 2V3.56512H574.833V2V0.43488H159.555V2ZM574.833 2L574.833 3.56512C585.983 3.56523 595.397 11.0094 598.372 21.2022L599.874 20.7637L601.376 20.3251C598.022 8.83369 587.412 0.43501 574.833 0.43488L574.833 2ZM599.874 20.7637L601.376 21.2022C604.351 11.0092 613.766 3.56512 624.917 3.56512V2V0.43488C612.338 0.43488 601.726 8.83319 598.372 20.3252L599.874 20.7637ZM624.917 2V3.56512H672.914V2V0.43488H624.917V2ZM672.914 2L672.914 3.56512C686.456 3.56532 697.434 14.543 697.434 28.085H698.999H700.564C700.564 12.8141 688.185 0.435107 672.914 0.43488L672.914 2ZM698.999 28.085H697.434V70.8652H698.999H700.564V28.085H698.999ZM698.999 70.8652L697.434 70.8652C697.434 82.7275 689.008 92.625 677.814 94.8948L678.125 96.4287L678.436 97.9626C691.06 95.4028 700.564 84.2459 700.564 70.8653L698.999 70.8652ZM678.125 96.4287L677.814 97.9626C689.008 100.232 697.434 110.13 697.434 121.992H698.999H700.564C700.564 108.611 691.061 97.4545 678.436 94.8948L678.125 96.4287ZM698.999 121.992H697.434V164.772H698.999H700.564V121.992H698.999ZM698.999 164.772L697.434 164.772C697.434 178.314 686.456 189.292 672.914 189.292L672.914 190.857L672.914 192.423C688.185 192.422 700.564 180.043 700.564 164.773L698.999 164.772ZM672.914 190.857V189.292H624.917V190.857V192.423H672.914V190.857ZM624.917 190.857V189.292C613.581 189.292 604.04 181.598 601.234 171.145L599.723 171.551L598.211 171.956C601.374 183.743 612.129 192.423 624.917 192.423V190.857ZM599.723 171.551L598.229 171.082C595.105 181.033 585.81 188.248 574.833 188.248L574.833 189.813L574.833 191.379C587.217 191.378 597.694 183.237 601.216 172.02L599.723 171.551ZM574.833 189.813V188.248H159.555V189.813V191.379H574.833V189.813ZM159.555 189.813V188.248C148.404 188.248 138.99 180.804 136.015 170.61L134.513 171.049L133.01 171.487C136.364 182.979 146.975 191.379 159.555 191.379V189.813ZM134.513 171.049L133.01 170.61C130.035 180.804 120.621 188.248 109.471 188.248L109.471 189.813L109.471 191.379C122.05 191.378 132.661 182.979 136.015 171.487L134.513 171.049ZM109.471 189.813V188.248H61.4736V189.813V191.379H109.471V189.813ZM61.4736 189.813V188.248C51.2802 188.248 42.5369 182.028 38.8378 173.169L37.3936 173.772L35.9493 174.376C40.1179 184.358 49.9735 191.379 61.4736 191.379V189.813ZM37.3936 173.772L35.8354 173.625C35.0566 181.829 28.1461 188.248 19.7373 188.248L19.7373 189.813L19.7373 191.379C29.7761 191.378 38.0218 183.716 38.9517 173.92L37.3936 173.772ZM19.7373 189.813L19.7373 188.248C10.8056 188.248 3.56542 181.008 3.56512 172.076L2 172.076L0.43488 172.076C0.435242 182.737 9.07677 191.378 19.7373 191.379L19.7373 189.813ZM2 172.076H3.56512V19.7373H2H0.43488V172.076H2ZM2 19.7373L3.56512 19.7373C3.56525 10.8055 10.8055 3.56526 19.7373 3.56512L19.7373 2L19.7373 0.43488C9.07669 0.435042 0.43504 9.07668 0.43488 19.7373L2 19.7373ZM19.7373 2L19.7373 3.56512C28.146 3.56534 35.0563 9.98383 35.8354 18.188L37.3936 18.04L38.9517 17.8921C38.0215 8.09658 29.7758 0.43514 19.7373 0.43488L19.7373 2ZM37.3936 18.04L38.8378 18.6432C42.537 9.78535 51.2804 3.56512 61.4736 3.56512V2V0.43488C49.9738 0.43488 40.118 7.45483 35.9493 17.4369L37.3936 18.04ZM61.4736 2V3.56512H109.471V2V0.43488H61.4736V2Z" fill="#1E1E1E"/>
</g>
<path d="M52.6079 122.614L72.9294 150.895C77.1945 156.83 85.4636 158.184 91.3991 153.919L91.4085 153.912C97.344 149.647 98.6981 141.378 94.433 135.443L74.1115 107.162C69.8464 101.227 61.5773 99.8726 55.6418 104.138L55.6324 104.144C49.697 108.409 48.3428 116.679 52.6079 122.614Z" fill="#EA4335" stroke="#1E1E1E" stroke-width="2.50419" stroke-miterlimit="10"/>
<path d="M75.85 153.912L75.8594 153.919C81.7949 158.184 90.0641 156.83 94.3291 150.895L114.651 122.614C118.916 116.679 117.562 108.409 111.626 104.144L111.617 104.138C105.681 99.8726 97.4121 101.227 93.1471 107.162L72.8256 135.443C68.5605 141.378 69.9146 149.647 75.85 153.912Z" fill="#4285F4" stroke="#1E1E1E" stroke-width="2.50419" stroke-miterlimit="10"/>
<path d="M72.9506 54.284L93.2722 82.5644C97.5372 88.4999 105.806 89.854 111.742 85.5889L111.751 85.5822C117.687 81.3171 119.041 73.048 114.776 67.1125L94.4542 38.8321C90.1892 32.8966 81.92 31.5425 75.9845 35.8076L75.9751 35.8143C70.0397 40.0794 68.6856 48.3485 72.9506 54.284Z" fill="#F9AB00" stroke="#1E1E1E" stroke-width="2.50419" stroke-miterlimit="10"/>
<path d="M55.5261 85.5866L55.5355 85.5933C61.4709 89.8584 69.7401 88.5043 74.0052 82.5688L94.3267 54.2884C98.5918 48.3529 97.2376 40.0838 91.3022 35.8187L91.2928 35.812C85.3573 31.5469 77.0882 32.901 72.8231 38.8365L52.5016 67.1169C48.2365 73.0524 49.5906 81.3215 55.5261 85.5866Z" fill="#34A853" stroke="#1E1E1E" stroke-width="2.50419" stroke-miterlimit="10"/>
<path d="M571.181 111.683H563.752C562.483 111.683 561.265 112.185 560.366 113.081C559.466 113.977 558.958 115.192 558.952 116.461V141.503C558.955 144.651 558.337 147.769 557.135 150.678C555.932 153.587 554.168 156.23 551.943 158.457C549.718 160.684 547.076 162.45 544.168 163.655C541.26 164.861 538.143 165.481 534.996 165.481H519.97C519.461 165.481 518.973 165.279 518.613 164.919C518.253 164.559 518.051 164.07 518.051 163.561V136.599C518.056 136.094 518.261 135.611 518.62 135.255C518.98 134.9 519.465 134.7 519.97 134.7H530.53C531.16 134.7 531.784 134.576 532.367 134.335C532.949 134.094 533.478 133.74 533.924 133.295C534.369 132.849 534.723 132.32 534.964 131.737C535.205 131.155 535.33 130.531 535.33 129.901V61.5362C535.33 60.9059 535.205 60.2818 534.964 59.6994C534.723 59.1171 534.369 58.588 533.924 58.1423C533.478 57.6966 532.949 57.3431 532.367 57.1019C531.784 56.8607 531.16 56.7365 530.53 56.7365H519.97C519.461 56.7365 518.973 56.5342 518.613 56.1742C518.253 55.8141 518.051 55.3258 518.051 54.8166V27.9174C518.051 27.4083 518.253 26.9199 518.613 26.5599C518.973 26.1998 519.461 25.9976 519.97 25.9976H534.996C541.351 26.0031 547.445 28.5317 551.937 33.0278C556.429 37.5239 558.952 43.6195 558.952 49.9752V75.0171C558.952 75.6474 559.077 76.2716 559.318 76.8539C559.559 77.4362 559.912 77.9653 560.358 78.411C560.804 78.8567 561.333 79.2102 561.915 79.4515C562.498 79.6927 563.122 79.8168 563.752 79.8168H571.181C571.69 79.8168 572.179 80.0191 572.539 80.3791C572.899 80.7392 573.101 81.2275 573.101 81.7367V109.763C573.101 110.272 572.899 110.76 572.539 111.12C572.179 111.48 571.69 111.683 571.181 111.683Z" fill="#F27DAD" stroke="#1E1E1E" stroke-width="2.50419" stroke-miterlimit="10"/>
<path d="M157.301 79.7542H164.73C165.999 79.7487 167.215 79.2406 168.11 78.341C169.006 77.4415 169.509 76.2239 169.509 74.9545V49.9126C169.525 43.5642 172.059 37.4814 176.554 32.9983C181.048 28.5151 187.138 25.9975 193.486 25.9976H208.491C209 25.9976 209.488 26.1998 209.848 26.5599C210.208 26.9199 210.41 27.4083 210.41 27.9174V54.8166C210.41 55.3258 210.208 55.8141 209.848 56.1742C209.488 56.5342 209 56.7365 208.491 56.7365H197.931C196.678 56.7639 195.486 57.2823 194.612 58.18C193.738 59.0778 193.251 60.2831 193.257 61.5362V129.901C193.254 130.53 193.376 131.154 193.614 131.736C193.853 132.318 194.205 132.847 194.649 133.293C195.093 133.739 195.621 134.093 196.202 134.335C196.783 134.576 197.406 134.7 198.036 134.7H208.491C208.996 134.7 209.481 134.9 209.841 135.255C210.2 135.611 210.405 136.094 210.41 136.599V163.499C210.41 164.008 210.208 164.496 209.848 164.856C209.488 165.216 209 165.418 208.491 165.418H193.486C190.337 165.421 187.217 164.803 184.307 163.599C181.397 162.395 178.752 160.629 176.525 158.402C174.298 156.175 172.532 153.53 171.328 150.62C170.124 147.71 169.506 144.59 169.509 141.441V116.399C169.503 115.133 168.998 113.921 168.103 113.026C167.208 112.131 165.996 111.626 164.73 111.62H157.301C156.791 111.62 156.303 111.418 155.943 111.058C155.583 110.698 155.381 110.209 155.381 109.7V81.6741C155.381 81.1649 155.583 80.6766 155.943 80.3165C156.303 79.9565 156.791 79.7542 157.301 79.7542Z" fill="#F27DAD" stroke="#1E1E1E" stroke-width="2.50419" stroke-miterlimit="10"/>
<path d="M232.385 107.613V55.7763H249.935C254.888 55.6196 259.8 56.7255 264.209 58.9901C268.091 61.0888 271.286 64.2622 273.412 68.1304C275.661 72.278 276.804 76.9353 276.73 81.653C276.822 86.3758 275.708 91.0442 273.495 95.2174C271.359 99.1005 268.13 102.271 264.209 104.337C259.812 106.62 254.908 107.747 249.956 107.613H232.385ZM242.172 98.3267H249.601C252.917 98.4334 256.208 97.7164 259.179 96.2399C261.667 94.9471 263.682 92.9022 264.939 90.3968C266.266 87.6692 266.924 84.6647 266.859 81.6321C266.931 78.5855 266.273 75.5659 264.939 72.8257C263.674 70.3366 261.659 68.3074 259.179 67.0243C256.208 65.5479 252.917 64.8309 249.601 64.9375H242.172V98.3267Z" fill="#1E1E1E"/>
<path d="M300.687 108.761C297.197 108.821 293.753 107.949 290.712 106.236C287.829 104.577 285.449 102.169 283.825 99.2658C282.189 96.2107 281.332 92.7985 281.332 89.3325C281.332 85.8666 282.189 82.4544 283.825 79.3992C285.414 76.453 287.736 73.9662 290.566 72.1788C293.499 70.3521 296.898 69.4102 300.353 69.4659C303.859 69.3514 307.325 70.2343 310.349 72.0119C313.037 73.6331 315.208 75.9853 316.609 78.794C318.027 81.7191 318.741 84.9347 318.696 88.1848C318.696 88.9569 318.696 89.6038 318.696 90.1673C318.696 90.7307 318.696 91.1272 318.55 91.3567H286.622V84.6163H309.577C309.504 83.7344 309.255 82.876 308.846 82.0912C308.387 81.1905 307.773 80.3781 307.031 79.6914C306.213 78.9374 305.265 78.3365 304.235 77.9176C303.048 77.4399 301.778 77.2057 300.499 77.2289C298.719 77.2135 296.972 77.7136 295.47 78.6688C293.928 79.6587 292.687 81.0515 291.881 82.6964C290.96 84.6076 290.509 86.7111 290.566 88.8317C290.499 91.0004 290.972 93.1518 291.943 95.0922C292.739 96.7103 293.976 98.0705 295.512 99.0154C297.116 99.9165 298.93 100.377 300.77 100.351C302.658 100.428 304.531 99.9813 306.18 99.0606C307.83 98.1399 309.194 96.7809 310.119 95.1339L317.82 98.9111C316.178 101.84 313.833 104.315 310.996 106.111C307.882 107.958 304.306 108.877 300.687 108.761Z" fill="#1E1E1E"/>
<path d="M334.514 107.614L318.863 70.6353H329.652L339.022 94.6964H339.585L349.101 70.6353H359.744L343.947 107.614H334.514Z" fill="#1E1E1E"/>
<path d="M364.376 107.614V55.7769H397.348V65.0632H374.205V107.614H364.376ZM369.823 86.8706V77.5842H394.99V86.8706H369.823Z" fill="#1E1E1E"/>
<path d="M419.573 108.761C416.082 108.826 412.638 107.954 409.598 106.236C406.715 104.577 404.335 102.169 402.712 99.2659C401.08 96.2091 400.227 92.7975 400.227 89.3326C400.227 85.8677 401.08 82.4561 402.712 79.3993C404.313 76.4624 406.632 73.9785 409.452 72.1789C412.387 70.3544 415.784 69.4126 419.239 69.466C422.752 69.351 426.225 70.2337 429.256 72.012C431.868 73.6409 433.971 75.9687 435.329 78.7315C436.746 81.6565 437.461 84.8722 437.415 88.1222C437.451 88.7826 437.451 89.4444 437.415 90.1047C437.399 90.5045 437.35 90.9023 437.269 91.2942H405.508V84.6164H428.338C428.276 83.7325 428.027 82.8718 427.607 82.0913C427.148 81.1906 426.534 80.3782 425.792 79.6915C424.981 78.9377 424.041 78.3368 423.016 77.9177C421.83 77.44 420.56 77.2058 419.281 77.229C417.494 77.2143 415.741 77.7142 414.231 78.6689C412.694 79.6644 411.454 81.0557 410.641 82.6965C409.738 84.6127 409.295 86.7138 409.348 88.8318C409.281 91.0005 409.754 93.1519 410.725 95.0922C411.56 96.7371 412.858 98.1011 414.46 99.0155C416.065 99.9166 417.879 100.377 419.719 100.351C421.728 100.418 423.714 99.9037 425.437 98.8694C426.932 97.9363 428.178 96.6545 429.068 95.134L436.748 98.9111C435.118 101.849 432.771 104.326 429.924 106.111C426.798 107.967 423.206 108.886 419.573 108.761Z" fill="#1E1E1E"/>
<path d="M457.387 108.761C454.604 108.832 451.833 108.364 449.227 107.384C447.139 106.593 445.246 105.362 443.676 103.773C442.322 102.347 441.265 100.666 440.567 98.8277L449.039 95.134C449.747 96.7444 450.907 98.1147 452.378 99.0781C453.853 100 455.565 100.472 457.303 100.435C458.731 100.451 460.149 100.188 461.477 99.6624C462.053 99.4668 462.549 99.087 462.889 98.5818C463.228 98.0765 463.392 97.4736 463.355 96.8661C463.383 96.4442 463.317 96.0213 463.162 95.628C463.007 95.2347 462.766 94.8806 462.458 94.5914C461.742 94.0028 460.92 93.5565 460.037 93.2767C459.059 92.9627 458.063 92.7118 457.053 92.5255L452.712 91.5864C450.916 91.1834 449.201 90.4777 447.641 89.4996C446.081 88.547 444.755 87.2562 443.76 85.7224C442.753 84.1561 442.237 82.325 442.278 80.4636C442.232 78.3666 442.91 76.3177 444.198 74.6622C445.57 72.9469 447.369 71.6226 449.415 70.8225C451.727 69.8841 454.203 69.4159 456.698 69.4452C458.955 69.4172 461.203 69.7123 463.376 70.3216C465.25 70.8459 466.997 71.7478 468.51 72.9719C470.001 74.1963 471.193 75.7451 471.995 77.5003L463.877 81.0479C463.233 79.7329 462.178 78.6634 460.872 78.0012C459.633 77.4141 458.278 77.1144 456.907 77.1247C455.541 77.0619 454.186 77.3953 453.004 78.0846C452.587 78.2961 452.232 78.6137 451.975 79.0056C451.719 79.3975 451.57 79.85 451.544 80.3175C451.562 80.809 451.706 81.2876 451.962 81.7077C452.217 82.1278 452.576 82.4754 453.004 82.7174C454.063 83.4344 455.244 83.9508 456.489 84.2408L461.915 85.5346C465.041 86.0951 467.939 87.5441 470.263 89.7083C471.166 90.6235 471.878 91.7092 472.358 92.9021C472.838 94.0951 473.076 95.3716 473.059 96.6574C473.102 98.9539 472.367 101.197 470.972 103.022C469.482 104.881 467.532 106.32 465.317 107.196C462.803 108.238 460.108 108.77 457.387 108.761Z" fill="#1E1E1E"/>
<path d="M475.876 78.7321V70.6352H482.679V78.7321H475.876ZM494.657 108.156C493.012 108.25 491.366 108.006 489.819 107.439C488.272 106.872 486.858 105.994 485.663 104.859C484.537 103.639 483.668 102.205 483.109 100.641C482.55 99.0781 482.311 97.4181 482.408 95.7606V60.1802H491.903V94.0494C491.792 95.4505 492.176 96.8461 492.988 97.9935C493.452 98.4555 494.013 98.8091 494.63 99.0292C495.247 99.2493 495.905 99.3303 496.556 99.2664C497.265 99.2652 497.969 99.1525 498.643 98.9325C499.533 98.6195 500.381 98.1991 501.168 97.6804V106.946C500.117 107.361 499.036 107.696 497.934 107.948C496.823 108.13 495.699 108.207 494.574 108.177L494.657 108.156ZM491.465 78.7321V70.6352H500.876V78.7321H491.465Z" fill="#1E1E1E"/>
<path d="M480.488 126.165H248.203C237.277 126.165 228.42 135.022 228.42 145.948C228.42 156.874 237.277 165.731 248.203 165.731H480.488C491.414 165.731 500.271 156.874 500.271 145.948C500.271 135.022 491.414 126.165 480.488 126.165Z" fill="white" stroke="#1E1E1E" stroke-width="2.50419" stroke-miterlimit="10"/>
<path d="M329.923 152.76C328.74 152.76 327.704 152.44 326.814 151.8C325.937 151.146 325.325 150.262 324.977 149.149L327.565 148.085C327.746 148.739 328.038 149.24 328.441 149.588C328.845 149.922 329.339 150.089 329.923 150.089C330.563 150.089 331.064 149.88 331.425 149.462C331.801 149.045 331.989 148.461 331.989 147.71V137.484H334.806V147.689C334.806 148.774 334.591 149.699 334.159 150.464C333.728 151.215 333.144 151.786 332.406 152.175C331.669 152.565 330.841 152.76 329.923 152.76ZM340.865 152.76C339.739 152.76 338.813 152.433 338.09 151.779C337.367 151.111 337.005 150.242 337.005 149.17C337.005 148.461 337.193 147.835 337.568 147.292C337.944 146.75 338.459 146.332 339.113 146.04C339.766 145.748 340.49 145.602 341.283 145.602C342.382 145.602 343.321 145.762 344.1 146.082V145.623C344.1 145.038 343.877 144.565 343.432 144.204C343.001 143.842 342.417 143.661 341.679 143.661C341.178 143.661 340.692 143.779 340.219 144.016C339.759 144.238 339.377 144.538 339.071 144.913L337.318 143.536C337.833 142.868 338.48 142.353 339.259 141.992C340.038 141.63 340.886 141.449 341.805 141.449C343.432 141.449 344.67 141.825 345.519 142.576C346.368 143.327 346.792 144.426 346.792 145.873V152.426H344.1V151.341H343.933C343.613 151.758 343.189 152.099 342.66 152.363C342.145 152.628 341.547 152.76 340.865 152.76ZM341.512 150.631C342.305 150.631 342.931 150.381 343.391 149.88C343.864 149.365 344.1 148.767 344.1 148.085C343.391 147.751 342.646 147.584 341.867 147.584C340.448 147.584 339.739 148.113 339.739 149.17C339.739 149.602 339.892 149.956 340.198 150.235C340.504 150.499 340.942 150.631 341.512 150.631ZM349.308 137.484H352.041V145.623H352.187L356.006 141.783H359.366V141.95L355.339 145.894L359.554 152.259V152.426H356.319L353.419 147.772L352.041 149.129V152.426H349.308V137.484ZM364.016 152.76C362.889 152.76 361.964 152.433 361.241 151.779C360.517 151.111 360.156 150.242 360.156 149.17C360.156 148.461 360.343 147.835 360.719 147.292C361.095 146.75 361.609 146.332 362.263 146.04C362.917 145.748 363.641 145.602 364.434 145.602C365.533 145.602 366.472 145.762 367.251 146.082V145.623C367.251 145.038 367.028 144.565 366.583 144.204C366.152 143.842 365.567 143.661 364.83 143.661C364.329 143.661 363.842 143.779 363.369 144.016C362.91 144.238 362.528 144.538 362.222 144.913L360.469 143.536C360.983 142.868 361.63 142.353 362.409 141.992C363.188 141.63 364.037 141.449 364.955 141.449C366.583 141.449 367.821 141.825 368.67 142.576C369.518 143.327 369.943 144.426 369.943 145.873V152.426H367.251V151.341H367.084C366.764 151.758 366.34 152.099 365.811 152.363C365.296 152.628 364.698 152.76 364.016 152.76ZM364.663 150.631C365.456 150.631 366.082 150.381 366.541 149.88C367.014 149.365 367.251 148.767 367.251 148.085C366.541 147.751 365.797 147.584 365.018 147.584C363.599 147.584 362.889 148.113 362.889 149.17C362.889 149.602 363.042 149.956 363.348 150.235C363.654 150.499 364.093 150.631 364.663 150.631ZM372.458 141.783H375.025V143.202H375.192C375.47 142.687 375.895 142.277 376.465 141.971C377.035 141.651 377.648 141.491 378.301 141.491C378.774 141.491 379.108 141.533 379.303 141.616V144.287C378.955 144.148 378.524 144.078 378.009 144.078C377.147 144.078 376.458 144.357 375.943 144.913C375.443 145.47 375.192 146.228 375.192 147.188V152.426H372.458V141.783ZM386.106 152.593C385.578 152.593 385.091 152.516 384.645 152.363C384.2 152.196 383.839 151.974 383.56 151.695C382.906 151.069 382.579 150.179 382.579 149.024V144.12H380.722V141.783H382.579V138.778H385.313V141.783H387.922V144.12H385.313V148.523C385.313 149.066 385.431 149.456 385.668 149.692C385.863 149.915 386.197 150.026 386.67 150.026C386.934 150.026 387.15 149.991 387.317 149.922C387.497 149.852 387.727 149.734 388.005 149.567V152.238C387.407 152.474 386.774 152.593 386.106 152.593ZM393.24 152.76C392.113 152.76 391.188 152.433 390.464 151.779C389.741 151.111 389.379 150.242 389.379 149.17C389.379 148.461 389.567 147.835 389.943 147.292C390.318 146.75 390.833 146.332 391.487 146.04C392.141 145.748 392.864 145.602 393.657 145.602C394.756 145.602 395.695 145.762 396.474 146.082V145.623C396.474 145.038 396.252 144.565 395.807 144.204C395.375 143.842 394.791 143.661 394.054 143.661C393.553 143.661 393.066 143.779 392.593 144.016C392.134 144.238 391.751 144.538 391.445 144.913L389.692 143.536C390.207 142.868 390.854 142.353 391.633 141.992C392.412 141.63 393.261 141.449 394.179 141.449C395.807 141.449 397.045 141.825 397.894 142.576C398.742 143.327 399.166 144.426 399.166 145.873V152.426H396.474V151.341H396.308C395.988 151.758 395.563 152.099 395.035 152.363C394.52 152.628 393.922 152.76 393.24 152.76ZM393.887 150.631C394.68 150.631 395.306 150.381 395.765 149.88C396.238 149.365 396.474 148.767 396.474 148.085C395.765 147.751 395.021 147.584 394.242 147.584C392.823 147.584 392.113 148.113 392.113 149.17C392.113 149.602 392.266 149.956 392.572 150.235C392.878 150.499 393.316 150.631 393.887 150.631Z" fill="#1E1E1E"/>
<path d="M632.666 65.2714C634.091 63.8467 636.896 61.042 641.08 56.8573C645.265 52.628 648.048 49.7565 649.428 48.2428C651.298 46.2395 652.566 44.6146 653.234 43.368C653.946 42.1215 654.303 40.6301 654.303 38.8939C654.303 37.1576 653.635 35.644 652.299 34.3529C650.964 33.0619 649.161 32.4164 646.89 32.4164C644.798 32.4164 643.084 33.0396 641.748 34.2862C640.457 35.4882 639.611 36.8905 639.211 38.4932L632.533 35.7553C632.978 34.1526 633.802 32.5722 635.004 31.014C636.25 29.4558 637.897 28.1425 639.945 27.0741C641.993 26.0056 644.353 25.4714 647.024 25.4714C649.917 25.4714 652.477 26.0724 654.703 27.2744C656.974 28.4319 658.71 30.0346 659.912 32.0825C661.159 34.0858 661.782 36.3118 661.782 38.7603C661.782 41.3869 661.092 43.9245 659.712 46.373C658.376 48.7771 656.662 51.0253 654.57 53.1177C653.679 53.9635 651.431 56.1895 647.825 59.7955L642.349 65.2714L642.483 65.5385H662.383V72.2163H632.666V65.2714Z" fill="#1E1E1E"/>
<path d="M648.184 167.192C645.958 167.192 643.754 166.747 641.573 165.856C639.436 164.922 637.544 163.541 635.897 161.716C634.249 159.846 633.092 157.554 632.424 154.838L639.035 152.234C639.614 154.638 640.682 156.574 642.241 158.043C643.843 159.512 645.802 160.247 648.117 160.247C650.61 160.247 652.68 159.468 654.328 157.91C655.975 156.307 656.798 154.259 656.798 151.766C656.798 149.273 655.975 147.225 654.328 145.623C652.725 143.975 650.655 143.152 648.117 143.152C646.693 143.152 645.357 143.463 644.11 144.087C642.864 144.71 641.84 145.578 641.039 146.691L633.76 143.486L636.564 120.447H661.406V127.125H642.708L641.039 139.145L641.439 139.212C643.754 137.387 646.448 136.474 649.519 136.474C652.102 136.474 654.506 137.119 656.732 138.41C659.002 139.702 660.805 141.505 662.141 143.82C663.476 146.135 664.144 148.761 664.144 151.699C664.144 154.638 663.454 157.287 662.074 159.646C660.694 162.006 658.779 163.853 656.331 165.189C653.927 166.524 651.211 167.192 648.184 167.192Z" fill="#1E1E1E"/>
<defs>
<filter id="filter0_d_3993_7212" x="0.434875" y="0.435059" width="712.65" height="204.508" filterUnits="userSpaceOnUse" color-interpolation-filters="sRGB">
<feFlood flood-opacity="0" result="BackgroundImageFix"/>
<feColorMatrix in="SourceAlpha" type="matrix" values="0 0 0 0 0 0 0 0 0 0 0 0 0 0 0 0 0 0 127 0" result="hardAlpha"/>
<feOffset dx="12.521" dy="12.521"/>
<feComposite in2="hardAlpha" operator="out"/>
<feColorMatrix type="matrix" values="0 0 0 0 0.113725 0 0 0 0 0.113725 0 0 0 0 0.113725 0 0 0 1 0"/>
<feBlend mode="normal" in2="BackgroundImageFix" result="effect1_dropShadow_3993_7212"/>
<feBlend mode="normal" in="SourceGraphic" in2="effect1_dropShadow_3993_7212" result="shape"/>
</filter>
</defs>
</svg>
